# MagicaVoxel @ Ephtracy

# group
o 

# material
mtllib chicky.vox.mtl
usemtl palette

# normals
vn -1 0 0
vn 1 0 0
vn 0 0 1
vn 0 0 -1
vn 0 -1 0
vn 0 1 0

# texcoords
vt 0.228516 0.5
vt 0.279297 0.5
vt 0.958984 0.5
vt 0.994141 0.5

# verts
v -0.5 0.3 0
v -0.5 0.3 -0.1
v -0.5 0.4 0
v -0.5 0.4 -0.1
v -0.4 -0.7 0.3
v -0.4 -0.7 0.2
v -0.4 -0.7 0.1
v -0.4 -0.7 0
v -0.4 -0.7 -0.1
v -0.4 -0.7 -0.2
v -0.4 -0.7 -0.3
v -0.4 -0.7 -0.4
v -0.4 -0.6 0.3
v -0.4 -0.6 0.2
v -0.4 -0.6 0.1
v -0.4 -0.6 0
v -0.4 -0.6 -0.1
v -0.4 -0.6 -0.2
v -0.4 -0.6 -0.3
v -0.4 -0.6 -0.4
v -0.4 0.2 0
v -0.4 0.2 -0.1
v -0.4 0.3 0
v -0.4 0.3 -0.1
v -0.3 -0.3 0.2
v -0.3 -0.3 -0.3
v -0.3 0.2 0
v -0.3 0.2 -0.1
v -0.3 0.3 0
v -0.3 0.3 -0.1
v -0.3 0.4 0
v -0.3 0.4 -0.1
v -0.3 0.6 0.2
v -0.3 0.6 -0.3
v -0.2 -0.7 0.2
v -0.2 -0.7 0.1
v -0.2 -0.7 -0.2
v -0.2 -0.7 -0.3
v -0.2 -0.6 0.2
v -0.2 -0.6 0.1
v -0.2 -0.6 -0.2
v -0.2 -0.6 -0.3
v -0.2 -0.1 0.3
v -0.2 -0.1 0.2
v -0.2 -0.1 -0.3
v -0.2 -0.1 -0.4
v -0.2 0.1 0.3
v -0.2 0.1 0.2
v -0.2 0.1 -0.3
v -0.2 0.1 -0.4
v -0.2 0.6 0
v -0.2 0.6 -0.1
v -0.2 0.7 0
v -0.2 0.7 -0.1
v -0.1 -0.6 0.2
v -0.1 -0.6 0.1
v -0.1 -0.6 -0.2
v -0.1 -0.6 -0.3
v -0.1 -0.3 0.2
v -0.1 -0.3 0.1
v -0.1 -0.3 -0.2
v -0.1 -0.3 -0.3
v 0 -0.6 0.2
v 0 -0.6 0.1
v 0 -0.6 -0.2
v 0 -0.6 -0.3
v 0 -0.3 0.2
v 0 -0.3 0.1
v 0 -0.3 -0.2
v 0 -0.3 -0.3
v 0.1 -0.7 0.3
v 0.1 -0.7 0
v 0.1 -0.7 -0.1
v 0.1 -0.7 -0.4
v 0.1 -0.6 0.3
v 0.1 -0.6 0
v 0.1 -0.6 -0.1
v 0.1 -0.6 -0.4
v 0.1 0.6 0
v 0.1 0.6 -0.1
v 0.1 0.7 0
v 0.1 0.7 -0.1
v 0.2 -0.3 0.2
v 0.2 -0.3 -0.3
v 0.2 -0.2 0.2
v 0.2 -0.2 -0.3
v 0.2 -0.1 0.3
v 0.2 -0.1 0.2
v 0.2 -0.1 -0.3
v 0.2 -0.1 -0.4
v 0.2 0.1 0.3
v 0.2 0.1 0.2
v 0.2 0.1 -0.3
v 0.2 0.1 -0.4
v 0.2 0.6 0.2
v 0.2 0.6 -0.3
v 0.4 0 0.2
v 0.4 0 0.1
v 0.4 0 -0.2
v 0.4 0 -0.3
v 0.4 0.1 0.2
v 0.4 0.1 0.1
v 0.4 0.1 -0.2
v 0.4 0.1 -0.3
v 0.5 -0.2 0.2
v 0.5 -0.2 -0.3
v 0.5 0 0.2
v 0.5 0 0.1
v 0.5 0 -0.2
v 0.5 0 -0.3
v 0.5 0.1 0.1
v 0.5 0.1 -0.2
v -0.4 -0.7 0.3
v -0.4 -0.6 0.3
v -0.2 -0.1 0.3
v -0.2 0.1 0.3
v 0.1 -0.7 0.3
v 0.1 -0.6 0.3
v 0.2 -0.1 0.3
v 0.2 0.1 0.3
v -0.3 -0.3 0.2
v -0.3 0.6 0.2
v -0.2 -0.1 0.2
v -0.2 0.1 0.2
v -0.2 0.4 0.2
v -0.2 0.5 0.2
v -0.1 -0.6 0.2
v -0.1 -0.3 0.2
v -0.1 0.4 0.2
v -0.1 0.5 0.2
v 0 -0.6 0.2
v 0 -0.3 0.2
v 0.2 -0.3 0.2
v 0.2 -0.2 0.2
v 0.2 -0.1 0.2
v 0.2 0.1 0.2
v 0.2 0.6 0.2
v 0.4 0 0.2
v 0.4 0.1 0.2
v 0.5 -0.2 0.2
v 0.5 0 0.2
v -0.4 -0.7 0.1
v -0.4 -0.6 0.1
v -0.2 -0.7 0.1
v -0.2 -0.6 0.1
v 0.4 0 0.1
v 0.4 0.1 0.1
v 0.5 0 0.1
v 0.5 0.1 0.1
v -0.5 0.3 0
v -0.5 0.4 0
v -0.4 0.2 0
v -0.4 0.3 0
v -0.3 0.2 0
v -0.3 0.3 0
v -0.3 0.4 0
v -0.2 0.6 0
v -0.2 0.7 0
v 0.1 0.6 0
v 0.1 0.7 0
v -0.4 -0.7 -0.1
v -0.4 -0.6 -0.1
v 0.1 -0.7 -0.1
v 0.1 -0.6 -0.1
v -0.1 -0.6 -0.2
v -0.1 -0.3 -0.2
v 0 -0.6 -0.2
v 0 -0.3 -0.2
v -0.4 -0.7 -0.3
v -0.4 -0.6 -0.3
v -0.2 -0.7 -0.3
v -0.2 -0.6 -0.3
v -0.4 -0.7 0.2
v -0.4 -0.6 0.2
v -0.2 -0.7 0.2
v -0.2 -0.6 0.2
v -0.1 -0.6 0.1
v -0.1 -0.3 0.1
v 0 -0.6 0.1
v 0 -0.3 0.1
v -0.4 -0.7 0
v -0.4 -0.6 0
v 0.1 -0.7 0
v 0.1 -0.6 0
v -0.5 0.3 -0.1
v -0.5 0.4 -0.1
v -0.4 0.2 -0.1
v -0.4 0.3 -0.1
v -0.3 0.2 -0.1
v -0.3 0.3 -0.1
v -0.3 0.4 -0.1
v -0.2 0.6 -0.1
v -0.2 0.7 -0.1
v 0.1 0.6 -0.1
v 0.1 0.7 -0.1
v -0.4 -0.7 -0.2
v -0.4 -0.6 -0.2
v -0.2 -0.7 -0.2
v -0.2 -0.6 -0.2
v 0.4 0 -0.2
v 0.4 0.1 -0.2
v 0.5 0 -0.2
v 0.5 0.1 -0.2
v -0.3 -0.3 -0.3
v -0.3 0.6 -0.3
v -0.2 -0.1 -0.3
v -0.2 0.1 -0.3
v -0.2 0.4 -0.3
v -0.2 0.5 -0.3
v -0.1 -0.6 -0.3
v -0.1 -0.3 -0.3
v -0.1 0.4 -0.3
v -0.1 0.5 -0.3
v 0 -0.6 -0.3
v 0 -0.3 -0.3
v 0.2 -0.3 -0.3
v 0.2 -0.2 -0.3
v 0.2 -0.1 -0.3
v 0.2 0.1 -0.3
v 0.2 0.6 -0.3
v 0.4 0 -0.3
v 0.4 0.1 -0.3
v 0.5 -0.2 -0.3
v 0.5 0 -0.3
v -0.4 -0.7 -0.4
v -0.4 -0.6 -0.4
v -0.2 -0.1 -0.4
v -0.2 0.1 -0.4
v 0.1 -0.7 -0.4
v 0.1 -0.6 -0.4
v 0.2 -0.1 -0.4
v 0.2 0.1 -0.4
v -0.4 -0.7 0.3
v 0.1 -0.7 0.3
v -0.4 -0.7 0.2
v -0.2 -0.7 0.2
v -0.4 -0.7 0.1
v -0.2 -0.7 0.1
v -0.4 -0.7 0
v 0.1 -0.7 0
v -0.4 -0.7 -0.1
v 0.1 -0.7 -0.1
v -0.4 -0.7 -0.2
v -0.2 -0.7 -0.2
v -0.4 -0.7 -0.3
v -0.2 -0.7 -0.3
v -0.4 -0.7 -0.4
v 0.1 -0.7 -0.4
v -0.3 -0.3 0.2
v -0.1 -0.3 0.2
v 0 -0.3 0.2
v 0.2 -0.3 0.2
v -0.1 -0.3 0.1
v 0 -0.3 0.1
v -0.1 -0.3 -0.2
v 0 -0.3 -0.2
v -0.3 -0.3 -0.3
v -0.1 -0.3 -0.3
v 0 -0.3 -0.3
v 0.2 -0.3 -0.3
v 0.2 -0.2 0.2
v 0.5 -0.2 0.2
v 0.2 -0.2 -0.3
v 0.5 -0.2 -0.3
v -0.2 -0.1 0.3
v 0.2 -0.1 0.3
v -0.2 -0.1 0.2
v 0.2 -0.1 0.2
v -0.2 -0.1 -0.3
v 0.2 -0.1 -0.3
v -0.2 -0.1 -0.4
v 0.2 -0.1 -0.4
v -0.4 0.2 0
v -0.3 0.2 0
v -0.4 0.2 -0.1
v -0.3 0.2 -0.1
v -0.5 0.3 0
v -0.4 0.3 0
v -0.5 0.3 -0.1
v -0.4 0.3 -0.1
v -0.4 -0.6 0.3
v 0.1 -0.6 0.3
v -0.4 -0.6 0.2
v -0.2 -0.6 0.2
v -0.1 -0.6 0.2
v 0 -0.6 0.2
v -0.4 -0.6 0.1
v -0.2 -0.6 0.1
v -0.1 -0.6 0.1
v 0 -0.6 0.1
v -0.4 -0.6 0
v 0.1 -0.6 0
v -0.4 -0.6 -0.1
v 0.1 -0.6 -0.1
v -0.4 -0.6 -0.2
v -0.2 -0.6 -0.2
v -0.1 -0.6 -0.2
v 0 -0.6 -0.2
v -0.4 -0.6 -0.3
v -0.2 -0.6 -0.3
v -0.1 -0.6 -0.3
v 0 -0.6 -0.3
v -0.4 -0.6 -0.4
v 0.1 -0.6 -0.4
v 0.4 0 0.2
v 0.5 0 0.2
v 0.4 0 0.1
v 0.5 0 0.1
v 0.4 0 -0.2
v 0.5 0 -0.2
v 0.4 0 -0.3
v 0.5 0 -0.3
v -0.2 0.1 0.3
v 0.2 0.1 0.3
v -0.2 0.1 0.2
v 0.2 0.1 0.2
v 0.4 0.1 0.2
v 0.4 0.1 0.1
v 0.5 0.1 0.1
v 0.4 0.1 -0.2
v 0.5 0.1 -0.2
v -0.2 0.1 -0.3
v 0.2 0.1 -0.3
v 0.4 0.1 -0.3
v -0.2 0.1 -0.4
v 0.2 0.1 -0.4
v -0.5 0.4 0
v -0.3 0.4 0
v -0.5 0.4 -0.1
v -0.3 0.4 -0.1
v -0.3 0.6 0.2
v 0.2 0.6 0.2
v -0.2 0.6 0
v 0.1 0.6 0
v -0.2 0.6 -0.1
v 0.1 0.6 -0.1
v -0.3 0.6 -0.3
v 0.2 0.6 -0.3
v -0.2 0.7 0
v 0.1 0.7 0
v -0.2 0.7 -0.1
v 0.1 0.7 -0.1

# faces
f 3/1/1 2/1/1 1/1/1
f 4/1/1 2/1/1 3/1/1
f 13/1/1 6/1/1 5/1/1
f 14/1/1 6/1/1 13/1/1
f 15/1/1 8/1/1 7/1/1
f 16/1/1 8/1/1 15/1/1
f 17/1/1 10/1/1 9/1/1
f 18/1/1 10/1/1 17/1/1
f 19/1/1 12/1/1 11/1/1
f 20/1/1 12/1/1 19/1/1
f 23/2/1 22/2/1 21/2/1
f 24/2/1 22/2/1 23/2/1
f 27/3/1 26/3/1 25/3/1
f 28/3/1 26/3/1 27/3/1
f 29/3/1 27/3/1 25/3/1
f 30/3/1 26/3/1 28/3/1
f 31/3/1 29/3/1 25/3/1
f 32/3/1 26/3/1 30/3/1
f 33/3/1 31/3/1 25/3/1
f 33/3/1 32/3/1 31/3/1
f 34/3/1 26/3/1 32/3/1
f 34/3/1 32/3/1 33/3/1
f 39/1/1 36/1/1 35/1/1
f 40/1/1 36/1/1 39/1/1
f 41/1/1 38/1/1 37/1/1
f 42/1/1 38/1/1 41/1/1
f 47/3/1 44/3/1 43/3/1
f 48/3/1 44/3/1 47/3/1
f 49/3/1 46/3/1 45/3/1
f 50/3/1 46/3/1 49/3/1
f 53/2/1 52/2/1 51/2/1
f 54/2/1 52/2/1 53/2/1
f 59/1/1 56/1/1 55/1/1
f 60/1/1 56/1/1 59/1/1
f 61/1/1 58/1/1 57/1/1
f 62/1/1 58/1/1 61/1/1
f 63/1/2 64/1/2 67/1/2
f 67/1/2 64/1/2 68/1/2
f 65/1/2 66/1/2 69/1/2
f 69/1/2 66/1/2 70/1/2
f 71/1/2 72/1/2 75/1/2
f 75/1/2 72/1/2 76/1/2
f 73/1/2 74/1/2 77/1/2
f 77/1/2 74/1/2 78/1/2
f 79/2/2 80/2/2 81/2/2
f 81/2/2 80/2/2 82/2/2
f 83/3/2 84/3/2 85/3/2
f 85/3/2 84/3/2 86/3/2
f 87/3/2 88/3/2 91/3/2
f 91/3/2 88/3/2 92/3/2
f 89/3/2 90/3/2 93/3/2
f 93/3/2 90/3/2 94/3/2
f 92/3/2 93/3/2 95/3/2
f 95/3/2 93/3/2 96/3/2
f 97/3/2 98/3/2 101/3/2
f 101/3/2 98/3/2 102/3/2
f 99/3/2 100/3/2 103/3/2
f 103/3/2 100/3/2 104/3/2
f 105/3/2 106/3/2 107/3/2
f 107/3/2 106/3/2 108/3/2
f 108/3/2 106/3/2 109/3/2
f 109/3/2 106/3/2 110/3/2
f 108/3/2 109/3/2 111/3/2
f 111/3/2 109/3/2 112/3/2
f 117/1/3 114/1/3 113/1/3
f 118/1/3 114/1/3 117/1/3
f 119/3/3 116/3/3 115/3/3
f 120/3/3 116/3/3 119/3/3
f 123/3/3 122/3/3 121/3/3
f 124/3/3 122/3/3 123/3/3
f 125/3/3 122/3/3 124/3/3
f 126/3/3 122/3/3 125/3/3
f 128/3/3 123/3/3 121/3/3
f 129/4/3 126/4/3 125/4/3
f 129/3/3 125/3/3 124/3/3
f 130/3/3 122/3/3 126/3/3
f 130/4/3 126/4/3 129/4/3
f 131/1/3 128/1/3 127/1/3
f 132/3/3 123/3/3 128/3/3
f 132/1/3 128/1/3 131/1/3
f 133/3/3 123/3/3 132/3/3
f 134/3/3 123/3/3 133/3/3
f 135/3/3 123/3/3 134/3/3
f 136/3/3 129/3/3 124/3/3
f 136/3/3 130/3/3 129/3/3
f 137/3/3 122/3/3 130/3/3
f 137/3/3 130/3/3 136/3/3
f 138/3/3 136/3/3 135/3/3
f 138/3/3 135/3/3 134/3/3
f 139/3/3 136/3/3 138/3/3
f 140/3/3 138/3/3 134/3/3
f 141/3/3 138/3/3 140/3/3
f 144/1/3 143/1/3 142/1/3
f 145/1/3 143/1/3 144/1/3
f 148/3/3 147/3/3 146/3/3
f 149/3/3 147/3/3 148/3/3
f 153/1/3 151/1/3 150/1/3
f 154/2/3 153/2/3 152/2/3
f 155/1/3 151/1/3 153/1/3
f 155/2/3 153/2/3 154/2/3
f 156/1/3 151/1/3 155/1/3
f 159/2/3 158/2/3 157/2/3
f 160/2/3 158/2/3 159/2/3
f 163/1/3 162/1/3 161/1/3
f 164/1/3 162/1/3 163/1/3
f 167/1/3 166/1/3 165/1/3
f 168/1/3 166/1/3 167/1/3
f 171/1/3 170/1/3 169/1/3
f 172/1/3 170/1/3 171/1/3
f 173/1/4 174/1/4 175/1/4
f 175/1/4 174/1/4 176/1/4
f 177/1/4 178/1/4 179/1/4
f 179/1/4 178/1/4 180/1/4
f 181/1/4 182/1/4 183/1/4
f 183/1/4 182/1/4 184/1/4
f 185/1/4 186/1/4 188/1/4
f 187/2/4 188/2/4 189/2/4
f 188/1/4 186/1/4 190/1/4
f 189/2/4 188/2/4 190/2/4
f 190/1/4 186/1/4 191/1/4
f 192/2/4 193/2/4 194/2/4
f 194/2/4 193/2/4 195/2/4
f 196/1/4 197/1/4 198/1/4
f 198/1/4 197/1/4 199/1/4
f 200/3/4 201/3/4 202/3/4
f 202/3/4 201/3/4 203/3/4
f 204/3/4 205/3/4 206/3/4
f 206/3/4 205/3/4 207/3/4
f 207/3/4 205/3/4 208/3/4
f 208/3/4 205/3/4 209/3/4
f 204/3/4 206/3/4 211/3/4
f 208/4/4 209/4/4 212/4/4
f 207/3/4 208/3/4 212/3/4
f 209/3/4 205/3/4 213/3/4
f 212/4/4 209/4/4 213/4/4
f 210/1/4 211/1/4 214/1/4
f 211/3/4 206/3/4 215/3/4
f 214/1/4 211/1/4 215/1/4
f 215/3/4 206/3/4 216/3/4
f 216/3/4 206/3/4 217/3/4
f 217/3/4 206/3/4 218/3/4
f 207/3/4 212/3/4 219/3/4
f 212/3/4 213/3/4 219/3/4
f 213/3/4 205/3/4 220/3/4
f 219/3/4 213/3/4 220/3/4
f 218/3/4 219/3/4 221/3/4
f 217/3/4 218/3/4 221/3/4
f 221/3/4 219/3/4 222/3/4
f 217/3/4 221/3/4 223/3/4
f 223/3/4 221/3/4 224/3/4
f 225/1/4 226/1/4 229/1/4
f 229/1/4 226/1/4 230/1/4
f 227/3/4 228/3/4 231/3/4
f 231/3/4 228/3/4 232/3/4
f 235/1/5 234/1/5 233/1/5
f 236/1/5 234/1/5 235/1/5
f 238/1/5 234/1/5 236/1/5
f 239/1/5 238/1/5 237/1/5
f 240/1/5 234/1/5 238/1/5
f 240/1/5 238/1/5 239/1/5
f 243/1/5 242/1/5 241/1/5
f 244/1/5 242/1/5 243/1/5
f 246/1/5 242/1/5 244/1/5
f 247/1/5 246/1/5 245/1/5
f 248/1/5 242/1/5 246/1/5
f 248/1/5 246/1/5 247/1/5
f 253/3/5 250/3/5 249/3/5
f 254/3/5 252/3/5 251/3/5
f 255/3/5 253/3/5 249/3/5
f 255/3/5 254/3/5 253/3/5
f 256/3/5 252/3/5 254/3/5
f 256/3/5 254/3/5 255/3/5
f 257/3/5 255/3/5 249/3/5
f 258/3/5 255/3/5 257/3/5
f 259/3/5 252/3/5 256/3/5
f 260/3/5 252/3/5 259/3/5
f 263/3/5 262/3/5 261/3/5
f 264/3/5 262/3/5 263/3/5
f 267/3/5 266/3/5 265/3/5
f 268/3/5 266/3/5 267/3/5
f 271/3/5 270/3/5 269/3/5
f 272/3/5 270/3/5 271/3/5
f 275/2/5 274/2/5 273/2/5
f 276/2/5 274/2/5 275/2/5
f 279/1/5 278/1/5 277/1/5
f 280/1/5 278/1/5 279/1/5
f 281/1/6 282/1/6 283/1/6
f 283/1/6 282/1/6 284/1/6
f 284/1/6 282/1/6 285/1/6
f 285/1/6 282/1/6 286/1/6
f 284/1/6 285/1/6 288/1/6
f 288/1/6 285/1/6 289/1/6
f 286/1/6 282/1/6 290/1/6
f 288/1/6 289/1/6 291/1/6
f 289/1/6 290/1/6 291/1/6
f 287/1/6 288/1/6 291/1/6
f 290/1/6 282/1/6 292/1/6
f 291/1/6 290/1/6 292/1/6
f 293/1/6 294/1/6 295/1/6
f 295/1/6 294/1/6 296/1/6
f 296/1/6 294/1/6 297/1/6
f 297/1/6 294/1/6 298/1/6
f 296/1/6 297/1/6 300/1/6
f 300/1/6 297/1/6 301/1/6
f 298/1/6 294/1/6 302/1/6
f 300/1/6 301/1/6 303/1/6
f 301/1/6 302/1/6 303/1/6
f 299/1/6 300/1/6 303/1/6
f 302/1/6 294/1/6 304/1/6
f 303/1/6 302/1/6 304/1/6
f 305/3/6 306/3/6 307/3/6
f 307/3/6 306/3/6 308/3/6
f 309/3/6 310/3/6 311/3/6
f 311/3/6 310/3/6 312/3/6
f 313/3/6 314/3/6 315/3/6
f 315/3/6 314/3/6 316/3/6
f 316/3/6 317/3/6 318/3/6
f 316/3/6 318/3/6 320/3/6
f 318/3/6 319/3/6 320/3/6
f 320/3/6 319/3/6 321/3/6
f 316/3/6 320/3/6 323/3/6
f 323/3/6 320/3/6 324/3/6
f 322/3/6 323/3/6 325/3/6
f 325/3/6 323/3/6 326/3/6
f 327/1/6 328/1/6 329/1/6
f 329/1/6 328/1/6 330/1/6
f 331/3/6 332/3/6 333/3/6
f 333/3/6 332/3/6 334/3/6
f 331/3/6 333/3/6 335/3/6
f 334/3/6 332/3/6 336/3/6
f 331/3/6 335/3/6 337/3/6
f 335/3/6 336/3/6 337/3/6
f 336/3/6 332/3/6 338/3/6
f 337/3/6 336/3/6 338/3/6
f 339/2/6 340/2/6 341/2/6
f 341/2/6 340/2/6 342/2/6
