# MagicaVoxel @ Ephtracy

# group
o 

# material
mtllib long_log.vox.mtl
usemtl palette

# normals
vn -1 0 0
vn 1 0 0
vn 0 0 1
vn 0 0 -1
vn 0 -1 0
vn 0 1 0

# texcoords
vt 0.373047 0.5
vt 0.537109 0.5

# verts
v -0.3 -0.1 1
v -0.3 -0.1 0.5
v -0.3 -0.1 -0.4
v -0.3 -0.1 -1.1
v -0.3 0 1
v -0.3 0 0.6
v -0.3 0 0.5
v -0.3 0 -0.4
v -0.3 0 -0.7
v -0.3 0 -1
v -0.3 0.1 1
v -0.3 0.1 0.6
v -0.3 0.1 0.4
v -0.3 0.1 0.1
v -0.3 0.1 -0.3
v -0.3 0.1 -0.6
v -0.3 0.1 -0.7
v -0.3 0.1 -1
v -0.3 0.2 1
v -0.3 0.2 0.4
v -0.3 0.2 0.1
v -0.3 0.2 -0.3
v -0.3 0.2 -0.6
v -0.3 0.2 -1.1
v 0.2 -0.1 1
v 0.2 -0.1 0.4
v 0.2 -0.1 0.3
v 0.2 -0.1 -0.6
v 0.2 -0.1 -1
v 0.2 -0.1 -1.1
v 0.2 0 1
v 0.2 0 0.6
v 0.2 0 0.4
v 0.2 0 0.3
v 0.2 0 0.2
v 0.2 0 -0.4
v 0.2 0 -0.6
v 0.2 0 -1
v 0.2 0.1 1
v 0.2 0.1 0.9
v 0.2 0.1 0.8
v 0.2 0.1 0.6
v 0.2 0.1 0.5
v 0.2 0.1 0.2
v 0.2 0.1 -0.1
v 0.2 0.1 -0.4
v 0.2 0.1 -0.5
v 0.2 0.1 -0.6
v 0.2 0.1 -0.8
v 0.2 0.1 -1.1
v -0.2 -0.1 1
v -0.2 -0.1 0.5
v -0.2 -0.1 -0.4
v -0.2 -0.1 -1.1
v -0.2 0 1
v -0.2 0 0.6
v -0.2 0 0.5
v -0.2 0 -0.4
v -0.2 0 -0.7
v -0.2 0 -1
v -0.2 0.1 1
v -0.2 0.1 0.8
v -0.2 0.1 0.6
v -0.2 0.1 0.5
v -0.2 0.1 0.1
v -0.2 0.1 -0.3
v -0.2 0.1 -0.7
v -0.2 0.1 -0.8
v -0.2 0.1 -1
v -0.2 0.1 -1.1
v 0.3 -0.1 1
v 0.3 -0.1 0.4
v 0.3 -0.1 0.3
v 0.3 -0.1 -0.6
v 0.3 -0.1 -1
v 0.3 -0.1 -1.1
v 0.3 0 1
v 0.3 0 0.6
v 0.3 0 0.4
v 0.3 0 0.3
v 0.3 0 0.2
v 0.3 0 -0.4
v 0.3 0 -0.6
v 0.3 0 -1
v 0.3 0.1 1
v 0.3 0.1 0.6
v 0.3 0.1 0.5
v 0.3 0.1 0.3
v 0.3 0.1 0.2
v 0.3 0.1 -0.4
v 0.3 0.1 -0.6
v 0.3 0.1 -0.7
v 0.3 0.1 -1
v 0.3 0.2 1
v 0.3 0.2 0.6
v 0.3 0.2 0.5
v 0.3 0.2 0.3
v 0.3 0.2 0.2
v 0.3 0.2 -0.4
v 0.3 0.2 -0.6
v 0.3 0.2 -0.7
v 0.3 0.2 -1
v 0.3 0.2 -1.1
v -0.3 -0.1 1
v -0.3 0 1
v -0.3 0.1 1
v -0.3 0.2 1
v -0.2 -0.1 1
v -0.2 0 1
v -0.2 0.1 1
v 0.2 -0.1 1
v 0.2 0 1
v 0.2 0.1 1
v 0.3 -0.1 1
v 0.3 0 1
v 0.3 0.1 1
v 0.3 0.2 1
v -0.3 -0.1 -1.1
v -0.3 0.2 -1.1
v -0.2 -0.1 -1.1
v -0.2 0.1 -1.1
v 0 0.1 -1.1
v 0 0.2 -1.1
v 0.1 0.1 -1.1
v 0.1 0.2 -1.1
v 0.2 -0.1 -1.1
v 0.2 0.1 -1.1
v 0.3 -0.1 -1.1
v 0.3 0.2 -1.1
v -0.3 -0.1 1
v -0.2 -0.1 1
v 0.2 -0.1 1
v 0.3 -0.1 1
v -0.3 -0.1 0.5
v -0.2 -0.1 0.5
v 0.2 -0.1 0.4
v 0.3 -0.1 0.4
v 0.2 -0.1 0.3
v 0.3 -0.1 0.3
v -0.3 -0.1 -0.4
v -0.2 -0.1 -0.4
v 0.2 -0.1 -0.6
v 0.3 -0.1 -0.6
v 0.2 -0.1 -1
v 0.3 -0.1 -1
v -0.3 -0.1 -1.1
v -0.2 -0.1 -1.1
v 0.2 -0.1 -1.1
v 0.3 -0.1 -1.1
v -0.2 0.1 1
v 0.2 0.1 1
v 0 0.1 0.9
v 0.2 0.1 0.9
v -0.2 0.1 0.8
v -0.1 0.1 0.8
v 0 0.1 0.8
v 0.2 0.1 0.8
v -0.2 0.1 0.6
v 0.1 0.1 0.6
v 0.2 0.1 0.6
v -0.2 0.1 0.5
v -0.1 0.1 0.5
v 0 0.1 0.5
v 0.1 0.1 0.5
v 0.2 0.1 0.5
v -0.1 0.1 0.2
v 0 0.1 0.2
v 0.1 0.1 0.2
v 0.2 0.1 0.2
v -0.2 0.1 0.1
v -0.1 0.1 0.1
v 0.1 0.1 -0.1
v 0.2 0.1 -0.1
v -0.2 0.1 -0.3
v -0.1 0.1 -0.3
v 0 0.1 -0.3
v 0.1 0.1 -0.3
v -0.1 0.1 -0.4
v 0 0.1 -0.4
v 0.1 0.1 -0.4
v 0.2 0.1 -0.4
v -0.1 0.1 -0.5
v 0 0.1 -0.5
v 0.1 0.1 -0.5
v 0.2 0.1 -0.5
v 0.1 0.1 -0.6
v 0.2 0.1 -0.6
v -0.2 0.1 -0.7
v -0.2 0.1 -0.8
v -0.1 0.1 -0.8
v 0 0.1 -0.8
v 0.1 0.1 -0.8
v 0.2 0.1 -0.8
v -0.2 0.1 -1
v -0.1 0.1 -1
v -0.2 0.1 -1.1
v 0 0.1 -1.1
v 0.1 0.1 -1.1
v 0.2 0.1 -1.1
v -0.3 0.2 1
v 0.3 0.2 1
v 0 0.2 0.9
v 0.2 0.2 0.9
v -0.2 0.2 0.8
v -0.1 0.2 0.8
v 0 0.2 0.8
v 0.2 0.2 0.8
v 0.1 0.2 0.6
v 0.3 0.2 0.6
v -0.2 0.2 0.5
v -0.1 0.2 0.5
v 0 0.2 0.5
v 0.1 0.2 0.5
v 0.3 0.2 0.5
v -0.3 0.2 0.4
v -0.2 0.2 0.4
v 0.2 0.2 0.3
v 0.3 0.2 0.3
v -0.1 0.2 0.2
v 0 0.2 0.2
v 0.1 0.2 0.2
v 0.2 0.2 0.2
v 0.3 0.2 0.2
v -0.3 0.2 0.1
v -0.2 0.2 0.1
v -0.1 0.2 0.1
v 0.1 0.2 -0.1
v 0.2 0.2 -0.1
v -0.3 0.2 -0.3
v -0.2 0.2 -0.3
v -0.1 0.2 -0.3
v 0 0.2 -0.3
v 0.1 0.2 -0.3
v -0.1 0.2 -0.4
v 0 0.2 -0.4
v 0.1 0.2 -0.4
v 0.3 0.2 -0.4
v -0.1 0.2 -0.5
v 0 0.2 -0.5
v 0.1 0.2 -0.5
v 0.2 0.2 -0.5
v -0.3 0.2 -0.6
v -0.2 0.2 -0.6
v 0.1 0.2 -0.6
v 0.2 0.2 -0.6
v 0.3 0.2 -0.6
v 0.2 0.2 -0.7
v 0.3 0.2 -0.7
v -0.2 0.2 -0.8
v -0.1 0.2 -0.8
v 0 0.2 -0.8
v 0.1 0.2 -0.8
v 0.2 0.2 -0.8
v -0.2 0.2 -1
v -0.1 0.2 -1
v 0.2 0.2 -1
v 0.3 0.2 -1
v -0.3 0.2 -1.1
v 0 0.2 -1.1
v 0.1 0.2 -1.1
v 0.3 0.2 -1.1

# faces
f 5/2/1 2/2/1 1/2/1
f 6/2/1 2/2/1 5/2/1
f 7/1/1 3/1/1 2/1/1
f 7/2/1 2/2/1 6/2/1
f 8/2/1 4/2/1 3/2/1
f 8/1/1 3/1/1 7/1/1
f 9/2/1 4/2/1 8/2/1
f 10/2/1 4/2/1 9/2/1
f 11/1/1 6/1/1 5/1/1
f 12/2/1 7/2/1 6/2/1
f 12/1/1 6/1/1 11/1/1
f 12/2/1 8/2/1 7/2/1
f 12/2/1 9/2/1 8/2/1
f 13/2/1 9/2/1 12/2/1
f 14/2/1 9/2/1 13/2/1
f 15/2/1 9/2/1 14/2/1
f 16/2/1 9/2/1 15/2/1
f 17/1/1 10/1/1 9/1/1
f 17/2/1 9/2/1 16/2/1
f 18/2/1 4/2/1 10/2/1
f 18/1/1 10/1/1 17/1/1
f 19/2/1 12/2/1 11/2/1
f 19/2/1 13/2/1 12/2/1
f 20/1/1 14/1/1 13/1/1
f 20/2/1 13/2/1 19/2/1
f 21/2/1 15/2/1 14/2/1
f 21/1/1 14/1/1 20/1/1
f 22/1/1 16/1/1 15/1/1
f 22/2/1 15/2/1 21/2/1
f 23/2/1 17/2/1 16/2/1
f 23/1/1 16/1/1 22/1/1
f 23/2/1 18/2/1 17/2/1
f 24/2/1 4/2/1 18/2/1
f 24/2/1 18/2/1 23/2/1
f 31/2/1 26/2/1 25/2/1
f 32/2/1 26/2/1 31/2/1
f 33/1/1 27/1/1 26/1/1
f 33/2/1 26/2/1 32/2/1
f 34/2/1 28/2/1 27/2/1
f 34/1/1 27/1/1 33/1/1
f 35/2/1 28/2/1 34/2/1
f 36/2/1 28/2/1 35/2/1
f 37/1/1 29/1/1 28/1/1
f 37/2/1 28/2/1 36/2/1
f 38/2/1 30/2/1 29/2/1
f 38/1/1 29/1/1 37/1/1
f 39/1/1 32/1/1 31/1/1
f 40/1/1 32/1/1 39/1/1
f 41/1/1 32/1/1 40/1/1
f 42/2/1 33/2/1 32/2/1
f 42/1/1 32/1/1 41/1/1
f 42/2/1 34/2/1 33/2/1
f 42/2/1 35/2/1 34/2/1
f 43/2/1 35/2/1 42/2/1
f 44/1/1 36/1/1 35/1/1
f 44/2/1 35/2/1 43/2/1
f 45/1/1 36/1/1 44/1/1
f 46/2/1 37/2/1 36/2/1
f 46/1/1 36/1/1 45/1/1
f 46/2/1 38/2/1 37/2/1
f 47/2/1 38/2/1 46/2/1
f 48/2/1 38/2/1 47/2/1
f 49/2/1 38/2/1 48/2/1
f 50/2/1 30/2/1 38/2/1
f 50/2/1 38/2/1 49/2/1
f 51/2/2 52/2/2 55/2/2
f 55/2/2 52/2/2 56/2/2
f 52/1/2 53/1/2 57/1/2
f 56/2/2 52/2/2 57/2/2
f 53/2/2 54/2/2 58/2/2
f 57/1/2 53/1/2 58/1/2
f 58/2/2 54/2/2 59/2/2
f 59/2/2 54/2/2 60/2/2
f 55/1/2 56/1/2 61/1/2
f 61/1/2 56/1/2 62/1/2
f 56/2/2 57/2/2 63/2/2
f 62/1/2 56/1/2 63/1/2
f 57/2/2 58/2/2 63/2/2
f 58/2/2 59/2/2 63/2/2
f 63/2/2 59/2/2 64/2/2
f 64/2/2 59/2/2 65/2/2
f 65/2/2 59/2/2 66/2/2
f 59/1/2 60/1/2 67/1/2
f 66/2/2 59/2/2 67/2/2
f 67/1/2 60/1/2 68/1/2
f 60/2/2 54/2/2 69/2/2
f 68/1/2 60/1/2 69/1/2
f 69/2/2 54/2/2 70/2/2
f 71/2/2 72/2/2 77/2/2
f 77/2/2 72/2/2 78/2/2
f 72/1/2 73/1/2 79/1/2
f 78/2/2 72/2/2 79/2/2
f 73/2/2 74/2/2 80/2/2
f 79/1/2 73/1/2 80/1/2
f 80/2/2 74/2/2 81/2/2
f 81/2/2 74/2/2 82/2/2
f 74/1/2 75/1/2 83/1/2
f 82/2/2 74/2/2 83/2/2
f 75/2/2 76/2/2 84/2/2
f 83/1/2 75/1/2 84/1/2
f 77/1/2 78/1/2 85/1/2
f 78/2/2 79/2/2 86/2/2
f 85/1/2 78/1/2 86/1/2
f 79/2/2 80/2/2 86/2/2
f 80/2/2 81/2/2 86/2/2
f 86/2/2 81/2/2 87/2/2
f 87/2/2 81/2/2 88/2/2
f 81/1/2 82/1/2 89/1/2
f 88/2/2 81/2/2 89/2/2
f 82/2/2 83/2/2 90/2/2
f 89/1/2 82/1/2 90/1/2
f 83/2/2 84/2/2 90/2/2
f 90/2/2 84/2/2 91/2/2
f 91/2/2 84/2/2 92/2/2
f 84/2/2 76/2/2 93/2/2
f 92/2/2 84/2/2 93/2/2
f 85/2/2 86/2/2 94/2/2
f 86/1/2 87/1/2 95/1/2
f 94/2/2 86/2/2 95/2/2
f 87/2/2 88/2/2 96/2/2
f 95/1/2 87/1/2 96/1/2
f 88/1/2 89/1/2 97/1/2
f 96/2/2 88/2/2 97/2/2
f 89/2/2 90/2/2 98/2/2
f 97/1/2 89/1/2 98/1/2
f 90/1/2 91/1/2 99/1/2
f 98/2/2 90/2/2 99/2/2
f 91/2/2 92/2/2 100/2/2
f 99/1/2 91/1/2 100/1/2
f 92/1/2 93/1/2 101/1/2
f 100/2/2 92/2/2 101/2/2
f 93/2/2 76/2/2 102/2/2
f 101/1/2 93/1/2 102/1/2
f 102/2/2 76/2/2 103/2/2
f 108/2/3 105/2/3 104/2/3
f 109/1/3 106/1/3 105/1/3
f 109/2/3 105/2/3 108/2/3
f 110/2/3 107/2/3 106/2/3
f 110/1/3 106/1/3 109/1/3
f 113/2/3 107/2/3 110/2/3
f 114/2/3 112/2/3 111/2/3
f 115/1/3 113/1/3 112/1/3
f 115/2/3 112/2/3 114/2/3
f 116/2/3 107/2/3 113/2/3
f 116/1/3 113/1/3 115/1/3
f 117/2/3 107/2/3 116/2/3
f 118/2/4 119/2/4 120/2/4
f 120/2/4 119/2/4 121/2/4
f 121/2/4 119/2/4 122/2/4
f 122/2/4 119/2/4 123/2/4
f 122/1/4 123/1/4 124/1/4
f 124/1/4 123/1/4 125/1/4
f 124/2/4 125/2/4 127/2/4
f 126/2/4 127/2/4 128/2/4
f 127/2/4 125/2/4 129/2/4
f 128/2/4 127/2/4 129/2/4
f 134/2/5 131/2/5 130/2/5
f 135/2/5 131/2/5 134/2/5
f 136/2/5 133/2/5 132/2/5
f 137/2/5 133/2/5 136/2/5
f 138/1/5 137/1/5 136/1/5
f 139/1/5 137/1/5 138/1/5
f 140/1/5 135/1/5 134/1/5
f 141/1/5 135/1/5 140/1/5
f 142/2/5 139/2/5 138/2/5
f 143/2/5 139/2/5 142/2/5
f 144/1/5 143/1/5 142/1/5
f 145/1/5 143/1/5 144/1/5
f 146/2/5 141/2/5 140/2/5
f 147/2/5 141/2/5 146/2/5
f 148/2/5 145/2/5 144/2/5
f 149/2/5 145/2/5 148/2/5
f 152/2/5 151/2/5 150/2/5
f 153/2/5 151/2/5 152/2/5
f 154/2/5 152/2/5 150/2/5
f 155/2/5 152/2/5 154/2/5
f 156/1/5 153/1/5 152/1/5
f 156/2/5 152/2/5 155/2/5
f 157/1/5 153/1/5 156/1/5
f 158/1/5 155/1/5 154/1/5
f 159/2/5 156/2/5 155/2/5
f 159/2/5 157/2/5 156/2/5
f 160/2/5 157/2/5 159/2/5
f 161/1/5 155/1/5 158/1/5
f 162/2/5 159/2/5 155/2/5
f 162/1/5 155/1/5 161/1/5
f 163/2/5 159/2/5 162/2/5
f 164/1/5 160/1/5 159/1/5
f 164/2/5 159/2/5 163/2/5
f 165/1/5 160/1/5 164/1/5
f 166/1/5 163/1/5 162/1/5
f 166/2/5 162/2/5 161/2/5
f 167/2/5 165/2/5 164/2/5
f 167/1/5 163/1/5 166/1/5
f 167/2/5 164/2/5 163/2/5
f 168/2/5 165/2/5 167/2/5
f 169/2/5 165/2/5 168/2/5
f 170/2/5 166/2/5 161/2/5
f 170/2/5 167/2/5 166/2/5
f 170/2/5 168/2/5 167/2/5
f 171/2/5 168/2/5 170/2/5
f 172/1/5 169/1/5 168/1/5
f 172/2/5 168/2/5 171/2/5
f 173/1/5 169/1/5 172/1/5
f 174/1/5 171/1/5 170/1/5
f 175/2/5 172/2/5 171/2/5
f 175/1/5 171/1/5 174/1/5
f 175/2/5 173/2/5 172/2/5
f 176/2/5 173/2/5 175/2/5
f 177/2/5 173/2/5 176/2/5
f 178/2/5 175/2/5 174/2/5
f 178/2/5 176/2/5 175/2/5
f 179/1/5 177/1/5 176/1/5
f 179/2/5 176/2/5 178/2/5
f 180/2/5 173/2/5 177/2/5
f 180/1/5 177/1/5 179/1/5
f 181/2/5 173/2/5 180/2/5
f 182/1/5 179/1/5 178/1/5
f 182/2/5 178/2/5 174/2/5
f 183/2/5 180/2/5 179/2/5
f 183/1/5 179/1/5 182/1/5
f 184/1/5 181/1/5 180/1/5
f 184/2/5 180/2/5 183/2/5
f 185/1/5 181/1/5 184/1/5
f 186/2/5 183/2/5 182/2/5
f 186/2/5 184/2/5 183/2/5
f 186/2/5 185/2/5 184/2/5
f 187/2/5 185/2/5 186/2/5
f 188/2/5 182/2/5 174/2/5
f 188/2/5 186/2/5 182/2/5
f 189/2/5 186/2/5 188/2/5
f 190/2/5 186/2/5 189/2/5
f 191/2/5 186/2/5 190/2/5
f 192/1/5 187/1/5 186/1/5
f 192/2/5 186/2/5 191/2/5
f 193/1/5 187/1/5 192/1/5
f 194/1/5 190/1/5 189/1/5
f 195/2/5 191/2/5 190/2/5
f 195/1/5 190/1/5 194/1/5
f 196/2/5 195/2/5 194/2/5
f 197/1/5 192/1/5 191/1/5
f 197/2/5 195/2/5 196/2/5
f 197/2/5 191/2/5 195/2/5
f 198/2/5 193/2/5 192/2/5
f 198/1/5 192/1/5 197/1/5
f 199/2/5 193/2/5 198/2/5
f 200/2/6 201/2/6 202/2/6
f 202/2/6 201/2/6 203/2/6
f 200/2/6 202/2/6 204/2/6
f 204/2/6 202/2/6 205/2/6
f 202/1/6 203/1/6 206/1/6
f 205/2/6 202/2/6 206/2/6
f 203/2/6 201/2/6 207/2/6
f 206/1/6 203/1/6 207/1/6
f 205/2/6 206/2/6 208/2/6
f 206/2/6 207/2/6 208/2/6
f 207/2/6 201/2/6 209/2/6
f 208/2/6 207/2/6 209/2/6
f 204/1/6 205/1/6 210/1/6
f 200/2/6 204/2/6 210/2/6
f 205/2/6 208/2/6 211/2/6
f 210/1/6 205/1/6 211/1/6
f 211/2/6 208/2/6 212/2/6
f 208/1/6 209/1/6 213/1/6
f 212/2/6 208/2/6 213/2/6
f 213/1/6 209/1/6 214/1/6
f 200/2/6 210/2/6 215/2/6
f 210/2/6 211/2/6 215/2/6
f 215/2/6 211/2/6 216/2/6
f 213/2/6 214/2/6 217/2/6
f 212/2/6 213/2/6 217/2/6
f 217/2/6 214/2/6 218/2/6
f 211/1/6 212/1/6 219/1/6
f 216/2/6 211/2/6 219/2/6
f 212/2/6 217/2/6 220/2/6
f 219/1/6 212/1/6 220/1/6
f 220/2/6 217/2/6 221/2/6
f 217/1/6 218/1/6 222/1/6
f 221/2/6 217/2/6 222/2/6
f 222/1/6 218/1/6 223/1/6
f 215/1/6 216/1/6 224/1/6
f 220/2/6 221/2/6 225/2/6
f 224/1/6 216/1/6 225/1/6
f 216/2/6 219/2/6 225/2/6
f 219/2/6 220/2/6 225/2/6
f 225/2/6 221/2/6 226/2/6
f 221/1/6 222/1/6 227/1/6
f 226/2/6 221/2/6 227/2/6
f 222/2/6 223/2/6 228/2/6
f 227/1/6 222/1/6 228/1/6
f 224/2/6 225/2/6 229/2/6
f 225/1/6 226/1/6 230/1/6
f 229/2/6 225/2/6 230/2/6
f 226/2/6 227/2/6 231/2/6
f 230/1/6 226/1/6 231/1/6
f 227/2/6 228/2/6 231/2/6
f 231/2/6 228/2/6 232/2/6
f 232/2/6 228/2/6 233/2/6
f 230/2/6 231/2/6 234/2/6
f 231/2/6 232/2/6 234/2/6
f 232/1/6 233/1/6 235/1/6
f 234/2/6 232/2/6 235/2/6
f 233/2/6 228/2/6 236/2/6
f 235/1/6 233/1/6 236/1/6
f 228/2/6 223/2/6 237/2/6
f 236/2/6 228/2/6 237/2/6
f 234/1/6 235/1/6 238/1/6
f 230/2/6 234/2/6 238/2/6
f 235/2/6 236/2/6 239/2/6
f 238/1/6 235/1/6 239/1/6
f 236/1/6 237/1/6 240/1/6
f 239/2/6 236/2/6 240/2/6
f 240/1/6 237/1/6 241/1/6
f 229/1/6 230/1/6 242/1/6
f 230/2/6 238/2/6 243/2/6
f 242/1/6 230/1/6 243/1/6
f 238/2/6 239/2/6 243/2/6
f 240/2/6 241/2/6 243/2/6
f 239/2/6 240/2/6 243/2/6
f 243/2/6 241/2/6 244/2/6
f 241/1/6 237/1/6 245/1/6
f 244/2/6 241/2/6 245/2/6
f 245/1/6 237/1/6 246/1/6
f 244/1/6 245/1/6 247/1/6
f 245/2/6 246/2/6 247/2/6
f 247/2/6 246/2/6 248/2/6
f 243/2/6 244/2/6 249/2/6
f 242/2/6 243/2/6 249/2/6
f 249/2/6 244/2/6 250/2/6
f 250/2/6 244/2/6 251/2/6
f 247/1/6 248/1/6 252/1/6
f 251/2/6 244/2/6 252/2/6
f 244/1/6 247/1/6 252/1/6
f 252/1/6 248/1/6 253/1/6
f 249/1/6 250/1/6 254/1/6
f 242/2/6 249/2/6 254/2/6
f 250/2/6 251/2/6 255/2/6
f 254/1/6 250/1/6 255/1/6
f 253/1/6 248/1/6 256/1/6
f 252/2/6 253/2/6 256/2/6
f 256/1/6 248/1/6 257/1/6
f 242/2/6 254/2/6 258/2/6
f 254/2/6 255/2/6 258/2/6
f 255/2/6 251/2/6 259/2/6
f 258/2/6 255/2/6 259/2/6
f 251/1/6 252/1/6 259/1/6
f 256/2/6 257/2/6 260/2/6
f 259/1/6 252/1/6 260/1/6
f 252/2/6 256/2/6 260/2/6
f 260/2/6 257/2/6 261/2/6
