# MagicaVoxel @ Ephtracy

# group
o 

# material
mtllib railroad_crossing_arm.vox.mtl
usemtl palette

# normals
vn -1 0 0
vn 1 0 0
vn 0 0 1
vn 0 0 -1
vn 0 -1 0
vn 0 1 0

# texcoords
vt 0.419922 0.5
vt 0.958984 0.5

# verts
v 0 -0.1 1.4
v 0 -0.1 1.3
v 0 -0.1 1.1
v 0 -0.1 1
v 0 -0.1 0.8
v 0 -0.1 0.7
v 0 -0.1 0.5
v 0 -0.1 0.4
v 0 -0.1 0.2
v 0 -0.1 0.1
v 0 -0.1 -0.1
v 0 -0.1 -0.2
v 0 -0.1 -0.4
v 0 -0.1 -0.5
v 0 -0.1 -0.7
v 0 -0.1 -0.8
v 0 -0.1 -1
v 0 -0.1 -1.1
v 0 -0.1 -1.3
v 0 -0.1 -1.4
v 0 -0.1 -1.5
v 0 0 1.4
v 0 0 1.3
v 0 0 1.1
v 0 0 1
v 0 0 0.8
v 0 0 0.7
v 0 0 0.5
v 0 0 0.4
v 0 0 0.2
v 0 0 0.1
v 0 0 -0.1
v 0 0 -0.2
v 0 0 -0.4
v 0 0 -0.5
v 0 0 -0.7
v 0 0 -0.8
v 0 0 -1
v 0 0 -1.1
v 0 0 -1.3
v 0 0 -1.4
v 0 0 -1.5
v 0.1 -0.1 1.4
v 0.1 -0.1 1.3
v 0.1 -0.1 1.1
v 0.1 -0.1 1
v 0.1 -0.1 0.8
v 0.1 -0.1 0.7
v 0.1 -0.1 0.5
v 0.1 -0.1 0.4
v 0.1 -0.1 0.2
v 0.1 -0.1 0.1
v 0.1 -0.1 -0.1
v 0.1 -0.1 -0.2
v 0.1 -0.1 -0.4
v 0.1 -0.1 -0.5
v 0.1 -0.1 -0.7
v 0.1 -0.1 -0.8
v 0.1 -0.1 -1
v 0.1 -0.1 -1.1
v 0.1 -0.1 -1.3
v 0.1 -0.1 -1.4
v 0.1 -0.1 -1.5
v 0.1 0 1.4
v 0.1 0 1.3
v 0.1 0 1.1
v 0.1 0 1
v 0.1 0 0.8
v 0.1 0 0.7
v 0.1 0 0.5
v 0.1 0 0.4
v 0.1 0 0.2
v 0.1 0 0.1
v 0.1 0 -0.1
v 0.1 0 -0.2
v 0.1 0 -0.4
v 0.1 0 -0.5
v 0.1 0 -0.7
v 0.1 0 -0.8
v 0.1 0 -1
v 0.1 0 -1.1
v 0.1 0 -1.3
v 0.1 0 -1.4
v 0.1 0 -1.5
v 0 -0.1 1.4
v 0 0 1.4
v 0.1 -0.1 1.4
v 0.1 0 1.4
v 0 -0.1 -1.5
v 0 0 -1.5
v 0.1 -0.1 -1.5
v 0.1 0 -1.5
v 0 -0.1 1.4
v 0.1 -0.1 1.4
v 0 -0.1 1.3
v 0.1 -0.1 1.3
v 0 -0.1 1.1
v 0.1 -0.1 1.1
v 0 -0.1 1
v 0.1 -0.1 1
v 0 -0.1 0.8
v 0.1 -0.1 0.8
v 0 -0.1 0.7
v 0.1 -0.1 0.7
v 0 -0.1 0.5
v 0.1 -0.1 0.5
v 0 -0.1 0.4
v 0.1 -0.1 0.4
v 0 -0.1 0.2
v 0.1 -0.1 0.2
v 0 -0.1 0.1
v 0.1 -0.1 0.1
v 0 -0.1 -0.1
v 0.1 -0.1 -0.1
v 0 -0.1 -0.2
v 0.1 -0.1 -0.2
v 0 -0.1 -0.4
v 0.1 -0.1 -0.4
v 0 -0.1 -0.5
v 0.1 -0.1 -0.5
v 0 -0.1 -0.7
v 0.1 -0.1 -0.7
v 0 -0.1 -0.8
v 0.1 -0.1 -0.8
v 0 -0.1 -1
v 0.1 -0.1 -1
v 0 -0.1 -1.1
v 0.1 -0.1 -1.1
v 0 -0.1 -1.3
v 0.1 -0.1 -1.3
v 0 -0.1 -1.4
v 0.1 -0.1 -1.4
v 0 -0.1 -1.5
v 0.1 -0.1 -1.5
v 0 0 1.4
v 0.1 0 1.4
v 0 0 1.3
v 0.1 0 1.3
v 0 0 1.1
v 0.1 0 1.1
v 0 0 1
v 0.1 0 1
v 0 0 0.8
v 0.1 0 0.8
v 0 0 0.7
v 0.1 0 0.7
v 0 0 0.5
v 0.1 0 0.5
v 0 0 0.4
v 0.1 0 0.4
v 0 0 0.2
v 0.1 0 0.2
v 0 0 0.1
v 0.1 0 0.1
v 0 0 -0.1
v 0.1 0 -0.1
v 0 0 -0.2
v 0.1 0 -0.2
v 0 0 -0.4
v 0.1 0 -0.4
v 0 0 -0.5
v 0.1 0 -0.5
v 0 0 -0.7
v 0.1 0 -0.7
v 0 0 -0.8
v 0.1 0 -0.8
v 0 0 -1
v 0.1 0 -1
v 0 0 -1.1
v 0.1 0 -1.1
v 0 0 -1.3
v 0.1 0 -1.3
v 0 0 -1.4
v 0.1 0 -1.4
v 0 0 -1.5
v 0.1 0 -1.5

# faces
f 22/2/1 2/2/1 1/2/1
f 23/1/1 3/1/1 2/1/1
f 23/2/1 2/2/1 22/2/1
f 24/2/1 4/2/1 3/2/1
f 24/1/1 3/1/1 23/1/1
f 25/1/1 5/1/1 4/1/1
f 25/2/1 4/2/1 24/2/1
f 26/2/1 6/2/1 5/2/1
f 26/1/1 5/1/1 25/1/1
f 27/1/1 7/1/1 6/1/1
f 27/2/1 6/2/1 26/2/1
f 28/2/1 8/2/1 7/2/1
f 28/1/1 7/1/1 27/1/1
f 29/1/1 9/1/1 8/1/1
f 29/2/1 8/2/1 28/2/1
f 30/2/1 10/2/1 9/2/1
f 30/1/1 9/1/1 29/1/1
f 31/1/1 11/1/1 10/1/1
f 31/2/1 10/2/1 30/2/1
f 32/2/1 12/2/1 11/2/1
f 32/1/1 11/1/1 31/1/1
f 33/1/1 13/1/1 12/1/1
f 33/2/1 12/2/1 32/2/1
f 34/2/1 14/2/1 13/2/1
f 34/1/1 13/1/1 33/1/1
f 35/1/1 15/1/1 14/1/1
f 35/2/1 14/2/1 34/2/1
f 36/2/1 16/2/1 15/2/1
f 36/1/1 15/1/1 35/1/1
f 37/1/1 17/1/1 16/1/1
f 37/2/1 16/2/1 36/2/1
f 38/2/1 18/2/1 17/2/1
f 38/1/1 17/1/1 37/1/1
f 39/1/1 19/1/1 18/1/1
f 39/2/1 18/2/1 38/2/1
f 40/2/1 20/2/1 19/2/1
f 40/1/1 19/1/1 39/1/1
f 41/1/1 21/1/1 20/1/1
f 41/2/1 20/2/1 40/2/1
f 42/1/1 21/1/1 41/1/1
f 43/2/2 44/2/2 64/2/2
f 44/1/2 45/1/2 65/1/2
f 64/2/2 44/2/2 65/2/2
f 45/2/2 46/2/2 66/2/2
f 65/1/2 45/1/2 66/1/2
f 46/1/2 47/1/2 67/1/2
f 66/2/2 46/2/2 67/2/2
f 47/2/2 48/2/2 68/2/2
f 67/1/2 47/1/2 68/1/2
f 48/1/2 49/1/2 69/1/2
f 68/2/2 48/2/2 69/2/2
f 49/2/2 50/2/2 70/2/2
f 69/1/2 49/1/2 70/1/2
f 50/1/2 51/1/2 71/1/2
f 70/2/2 50/2/2 71/2/2
f 51/2/2 52/2/2 72/2/2
f 71/1/2 51/1/2 72/1/2
f 52/1/2 53/1/2 73/1/2
f 72/2/2 52/2/2 73/2/2
f 53/2/2 54/2/2 74/2/2
f 73/1/2 53/1/2 74/1/2
f 54/1/2 55/1/2 75/1/2
f 74/2/2 54/2/2 75/2/2
f 55/2/2 56/2/2 76/2/2
f 75/1/2 55/1/2 76/1/2
f 56/1/2 57/1/2 77/1/2
f 76/2/2 56/2/2 77/2/2
f 57/2/2 58/2/2 78/2/2
f 77/1/2 57/1/2 78/1/2
f 58/1/2 59/1/2 79/1/2
f 78/2/2 58/2/2 79/2/2
f 59/2/2 60/2/2 80/2/2
f 79/1/2 59/1/2 80/1/2
f 60/1/2 61/1/2 81/1/2
f 80/2/2 60/2/2 81/2/2
f 61/2/2 62/2/2 82/2/2
f 81/1/2 61/1/2 82/1/2
f 62/1/2 63/1/2 83/1/2
f 82/2/2 62/2/2 83/2/2
f 83/1/2 63/1/2 84/1/2
f 87/2/3 86/2/3 85/2/3
f 88/2/3 86/2/3 87/2/3
f 89/1/4 90/1/4 91/1/4
f 91/1/4 90/1/4 92/1/4
f 95/2/5 94/2/5 93/2/5
f 96/2/5 94/2/5 95/2/5
f 97/1/5 96/1/5 95/1/5
f 98/1/5 96/1/5 97/1/5
f 99/2/5 98/2/5 97/2/5
f 100/2/5 98/2/5 99/2/5
f 101/1/5 100/1/5 99/1/5
f 102/1/5 100/1/5 101/1/5
f 103/2/5 102/2/5 101/2/5
f 104/2/5 102/2/5 103/2/5
f 105/1/5 104/1/5 103/1/5
f 106/1/5 104/1/5 105/1/5
f 107/2/5 106/2/5 105/2/5
f 108/2/5 106/2/5 107/2/5
f 109/1/5 108/1/5 107/1/5
f 110/1/5 108/1/5 109/1/5
f 111/2/5 110/2/5 109/2/5
f 112/2/5 110/2/5 111/2/5
f 113/1/5 112/1/5 111/1/5
f 114/1/5 112/1/5 113/1/5
f 115/2/5 114/2/5 113/2/5
f 116/2/5 114/2/5 115/2/5
f 117/1/5 116/1/5 115/1/5
f 118/1/5 116/1/5 117/1/5
f 119/2/5 118/2/5 117/2/5
f 120/2/5 118/2/5 119/2/5
f 121/1/5 120/1/5 119/1/5
f 122/1/5 120/1/5 121/1/5
f 123/2/5 122/2/5 121/2/5
f 124/2/5 122/2/5 123/2/5
f 125/1/5 124/1/5 123/1/5
f 126/1/5 124/1/5 125/1/5
f 127/2/5 126/2/5 125/2/5
f 128/2/5 126/2/5 127/2/5
f 129/1/5 128/1/5 127/1/5
f 130/1/5 128/1/5 129/1/5
f 131/2/5 130/2/5 129/2/5
f 132/2/5 130/2/5 131/2/5
f 133/1/5 132/1/5 131/1/5
f 134/1/5 132/1/5 133/1/5
f 135/2/6 136/2/6 137/2/6
f 137/2/6 136/2/6 138/2/6
f 137/1/6 138/1/6 139/1/6
f 139/1/6 138/1/6 140/1/6
f 139/2/6 140/2/6 141/2/6
f 141/2/6 140/2/6 142/2/6
f 141/1/6 142/1/6 143/1/6
f 143/1/6 142/1/6 144/1/6
f 143/2/6 144/2/6 145/2/6
f 145/2/6 144/2/6 146/2/6
f 145/1/6 146/1/6 147/1/6
f 147/1/6 146/1/6 148/1/6
f 147/2/6 148/2/6 149/2/6
f 149/2/6 148/2/6 150/2/6
f 149/1/6 150/1/6 151/1/6
f 151/1/6 150/1/6 152/1/6
f 151/2/6 152/2/6 153/2/6
f 153/2/6 152/2/6 154/2/6
f 153/1/6 154/1/6 155/1/6
f 155/1/6 154/1/6 156/1/6
f 155/2/6 156/2/6 157/2/6
f 157/2/6 156/2/6 158/2/6
f 157/1/6 158/1/6 159/1/6
f 159/1/6 158/1/6 160/1/6
f 159/2/6 160/2/6 161/2/6
f 161/2/6 160/2/6 162/2/6
f 161/1/6 162/1/6 163/1/6
f 163/1/6 162/1/6 164/1/6
f 163/2/6 164/2/6 165/2/6
f 165/2/6 164/2/6 166/2/6
f 165/1/6 166/1/6 167/1/6
f 167/1/6 166/1/6 168/1/6
f 167/2/6 168/2/6 169/2/6
f 169/2/6 168/2/6 170/2/6
f 169/1/6 170/1/6 171/1/6
f 171/1/6 170/1/6 172/1/6
f 171/2/6 172/2/6 173/2/6
f 173/2/6 172/2/6 174/2/6
f 173/1/6 174/1/6 175/1/6
f 175/1/6 174/1/6 176/1/6
