# MagicaVoxel @ Ephtracy

# group
o 

# material
mtllib redcar.vox.mtl
usemtl palette

# normals
vn -1 0 0
vn 1 0 0
vn 0 0 1
vn 0 0 -1
vn 0 -1 0
vn 0 1 0

# texcoords
vt 0.0175781 0.5
vt 0.134766 0.5
vt 0.845703 0.5
vt 0.861328 0.5
vt 0.958984 0.5
vt 0.994141 0.5

# verts
v -0.5 0.1 0
v -0.5 0.1 -0.2
v -0.5 0.2 0
v -0.5 0.2 -0.2
v -0.4 -0.3 0.6
v -0.4 -0.3 0.3
v -0.4 -0.3 -0.2
v -0.4 -0.3 -0.5
v -0.4 -0.2 0.8
v -0.4 -0.2 0.6
v -0.4 -0.2 0.5
v -0.4 -0.2 0.4
v -0.4 -0.2 -0.3
v -0.4 -0.2 -0.4
v -0.4 -0.2 -0.5
v -0.4 -0.2 -0.7
v -0.4 -0.1 0.8
v -0.4 -0.1 0.6
v -0.4 -0.1 0.5
v -0.4 -0.1 0.4
v -0.4 -0.1 0.3
v -0.4 -0.1 -0.2
v -0.4 -0.1 -0.3
v -0.4 -0.1 -0.4
v -0.4 -0.1 -0.5
v -0.4 -0.1 -0.7
v -0.4 0 0.8
v -0.4 0 0.7
v -0.4 0 0.6
v -0.4 0 0.3
v -0.4 0 -0.2
v -0.4 0 -0.5
v -0.4 0 -0.6
v -0.4 0 -0.7
v -0.4 0.1 0.8
v -0.4 0.1 0.7
v -0.4 0.1 0
v -0.4 0.1 -0.2
v -0.4 0.1 -0.6
v -0.4 0.1 -0.7
v -0.4 0.2 0.7
v -0.4 0.2 0
v -0.4 0.2 -0.2
v -0.4 0.2 -0.6
v -0.3 0.1 0.8
v -0.3 0.1 0.7
v -0.3 0.1 -0.6
v -0.3 0.1 -0.7
v -0.3 0.2 0.8
v -0.3 0.2 0.7
v -0.3 0.2 0.6
v -0.3 0.2 0.5
v -0.3 0.2 0.4
v -0.3 0.2 0.3
v -0.3 0.2 -0.2
v -0.3 0.2 -0.3
v -0.3 0.2 -0.6
v -0.3 0.2 -0.7
v -0.3 0.4 0.5
v -0.3 0.4 0.4
v -0.3 0.4 0.3
v -0.3 0.4 -0.2
v -0.3 0.5 0.6
v -0.3 0.5 -0.3
v -0.2 -0.1 -0.3
v -0.2 -0.1 -0.4
v -0.2 -0.1 -0.5
v -0.2 0 -0.3
v -0.2 0 -0.5
v -0.1 -0.2 0.4
v -0.1 -0.2 -0.3
v -0.1 -0.1 0.4
v -0.1 -0.1 -0.3
v 0.1 -0.2 0.8
v 0.1 -0.2 0.7
v 0.1 -0.2 -0.6
v 0.1 -0.2 -0.7
v 0.1 -0.1 0.8
v 0.1 -0.1 0.7
v 0.1 -0.1 -0.6
v 0.1 -0.1 -0.7
v 0.1 0.1 0.5
v 0.1 0.1 0.2
v 0.1 0.1 -0.1
v 0.1 0.2 0.6
v 0.1 0.2 0.5
v 0.1 0.2 0.4
v 0.1 0.2 0.3
v 0.1 0.2 -0.1
v 0.1 0.2 -0.2
v 0.1 0.2 -0.3
v 0.1 0.4 0.6
v 0.1 0.4 0.5
v 0.1 0.4 0.4
v 0.1 0.4 0.3
v 0.1 0.4 -0.2
v 0.1 0.4 -0.3
v 0.2 -0.3 0.6
v 0.2 -0.3 0.3
v 0.2 -0.3 -0.2
v 0.2 -0.3 -0.5
v 0.2 -0.2 0.7
v 0.2 -0.2 0.6
v 0.2 -0.2 0.5
v 0.2 -0.2 0.4
v 0.2 -0.2 -0.3
v 0.2 -0.2 -0.4
v 0.2 -0.2 -0.5
v 0.2 -0.2 -0.6
v 0.2 -0.1 0.7
v 0.2 -0.1 0.6
v 0.2 -0.1 0.5
v 0.2 -0.1 0.4
v 0.2 -0.1 0.3
v 0.2 -0.1 -0.2
v 0.2 -0.1 -0.3
v 0.2 -0.1 -0.4
v 0.2 -0.1 -0.5
v 0.2 -0.1 -0.6
v 0.2 0 0.7
v 0.2 0 0.6
v 0.2 0 0.3
v 0.2 0 -0.2
v 0.2 0 -0.3
v -0.3 -0.3 0.6
v -0.3 -0.3 0.3
v -0.3 -0.3 -0.2
v -0.3 -0.3 -0.5
v -0.3 -0.2 0.7
v -0.3 -0.2 0.6
v -0.3 -0.2 0.5
v -0.3 -0.2 0.4
v -0.3 -0.2 -0.3
v -0.3 -0.2 -0.4
v -0.3 -0.2 -0.5
v -0.3 -0.2 -0.6
v -0.3 -0.1 0.7
v -0.3 -0.1 0.6
v -0.3 -0.1 0.5
v -0.3 -0.1 0.4
v -0.3 -0.1 0.3
v -0.3 -0.1 -0.2
v -0.3 -0.1 -0.3
v -0.3 -0.1 -0.4
v -0.3 -0.1 -0.5
v -0.3 -0.1 -0.6
v -0.3 0 0.7
v -0.3 0 0.6
v -0.3 0 0.3
v -0.3 0 -0.2
v -0.3 0 -0.5
v -0.2 -0.2 0.8
v -0.2 -0.2 0.7
v -0.2 -0.2 -0.6
v -0.2 -0.2 -0.7
v -0.2 -0.1 0.8
v -0.2 -0.1 0.7
v -0.2 -0.1 -0.6
v -0.2 -0.1 -0.7
v -0.2 0.1 0.5
v -0.2 0.1 0.2
v -0.2 0.1 -0.1
v -0.2 0.2 0.6
v -0.2 0.2 0.5
v -0.2 0.2 0.4
v -0.2 0.2 0.3
v -0.2 0.2 -0.1
v -0.2 0.2 -0.2
v -0.2 0.2 -0.3
v -0.2 0.4 0.6
v -0.2 0.4 0.5
v -0.2 0.4 0.4
v -0.2 0.4 0.3
v -0.2 0.4 -0.2
v -0.2 0.4 -0.3
v 0 -0.2 0.4
v 0 -0.2 -0.3
v 0 -0.1 0.4
v 0 -0.1 -0.3
v 0.2 0.1 0.8
v 0.2 0.1 0.7
v 0.2 0.1 -0.6
v 0.2 0.1 -0.7
v 0.2 0.2 0.8
v 0.2 0.2 0.7
v 0.2 0.2 0.6
v 0.2 0.2 0.5
v 0.2 0.2 0.4
v 0.2 0.2 0.3
v 0.2 0.2 -0.2
v 0.2 0.2 -0.3
v 0.2 0.2 -0.6
v 0.2 0.2 -0.7
v 0.2 0.4 0.5
v 0.2 0.4 0.4
v 0.2 0.4 0.3
v 0.2 0.4 -0.2
v 0.2 0.5 0.6
v 0.2 0.5 -0.3
v 0.3 -0.3 0.6
v 0.3 -0.3 0.3
v 0.3 -0.3 -0.2
v 0.3 -0.3 -0.5
v 0.3 -0.2 0.8
v 0.3 -0.2 0.6
v 0.3 -0.2 0.5
v 0.3 -0.2 0.4
v 0.3 -0.2 -0.3
v 0.3 -0.2 -0.4
v 0.3 -0.2 -0.5
v 0.3 -0.2 -0.7
v 0.3 -0.1 0.8
v 0.3 -0.1 0.6
v 0.3 -0.1 0.5
v 0.3 -0.1 0.4
v 0.3 -0.1 0.3
v 0.3 -0.1 -0.2
v 0.3 -0.1 -0.3
v 0.3 -0.1 -0.4
v 0.3 -0.1 -0.5
v 0.3 -0.1 -0.7
v 0.3 0 0.8
v 0.3 0 0.7
v 0.3 0 0.6
v 0.3 0 0.3
v 0.3 0 -0.2
v 0.3 0 -0.5
v 0.3 0 -0.6
v 0.3 0 -0.7
v 0.3 0.1 0.8
v 0.3 0.1 0.7
v 0.3 0.1 0
v 0.3 0.1 -0.2
v 0.3 0.1 -0.6
v 0.3 0.1 -0.7
v 0.3 0.2 0.7
v 0.3 0.2 0
v 0.3 0.2 -0.2
v 0.3 0.2 -0.6
v 0.4 0.1 0
v 0.4 0.1 -0.2
v 0.4 0.2 0
v 0.4 0.2 -0.2
v -0.4 -0.2 0.8
v -0.4 -0.1 0.8
v -0.4 0 0.8
v -0.4 0.1 0.8
v -0.3 0 0.8
v -0.3 0.1 0.8
v -0.3 0.2 0.8
v -0.2 -0.2 0.8
v -0.2 -0.1 0.8
v -0.2 0 0.8
v -0.2 0.1 0.8
v -0.2 0.2 0.8
v 0.1 -0.2 0.8
v 0.1 -0.1 0.8
v 0.1 0 0.8
v 0.1 0.1 0.8
v 0.1 0.2 0.8
v 0.2 0 0.8
v 0.2 0.1 0.8
v 0.2 0.2 0.8
v 0.3 -0.2 0.8
v 0.3 -0.1 0.8
v 0.3 0 0.8
v 0.3 0.1 0.8
v -0.4 0.1 0.7
v -0.4 0.2 0.7
v -0.3 0.1 0.7
v -0.3 0.2 0.7
v 0.2 0.1 0.7
v 0.2 0.2 0.7
v 0.3 0.1 0.7
v 0.3 0.2 0.7
v -0.4 -0.3 0.6
v -0.4 -0.2 0.6
v -0.3 -0.3 0.6
v -0.3 -0.2 0.6
v -0.3 0.2 0.6
v -0.3 0.5 0.6
v -0.2 0.2 0.6
v -0.2 0.4 0.6
v 0.1 0.2 0.6
v 0.1 0.4 0.6
v 0.2 -0.3 0.6
v 0.2 -0.2 0.6
v 0.2 0.2 0.6
v 0.2 0.5 0.6
v 0.3 -0.3 0.6
v 0.3 -0.2 0.6
v -0.3 -0.2 0.5
v -0.3 -0.1 0.5
v 0.2 -0.2 0.5
v 0.2 -0.1 0.5
v -0.3 0.2 0.4
v -0.3 0.4 0.4
v -0.2 0.2 0.4
v -0.2 0.4 0.4
v 0.1 0.2 0.4
v 0.1 0.4 0.4
v 0.2 0.2 0.4
v 0.2 0.4 0.4
v -0.5 0.1 0
v -0.5 0.2 0
v -0.4 0.1 0
v -0.4 0.2 0
v 0.3 0.1 0
v 0.3 0.2 0
v 0.4 0.1 0
v 0.4 0.2 0
v -0.2 0.1 -0.1
v -0.2 0.2 -0.1
v 0.1 0.1 -0.1
v 0.1 0.2 -0.1
v -0.4 -0.3 -0.2
v -0.4 -0.1 -0.2
v -0.3 -0.3 -0.2
v -0.3 -0.1 -0.2
v -0.3 0.2 -0.2
v -0.3 0.4 -0.2
v -0.2 0.2 -0.2
v -0.2 0.4 -0.2
v 0.1 0.2 -0.2
v 0.1 0.4 -0.2
v 0.2 -0.3 -0.2
v 0.2 -0.1 -0.2
v 0.2 0.2 -0.2
v 0.2 0.4 -0.2
v 0.3 -0.3 -0.2
v 0.3 -0.1 -0.2
v -0.3 -0.2 -0.3
v -0.3 -0.1 -0.3
v -0.2 -0.1 -0.3
v -0.2 0 -0.3
v -0.1 -0.2 -0.3
v -0.1 -0.1 -0.3
v 0 -0.2 -0.3
v 0 -0.1 -0.3
v 0.1 -0.1 -0.3
v 0.1 0 -0.3
v 0.2 -0.2 -0.3
v 0.2 -0.1 -0.3
v 0.2 0 -0.3
v -0.3 -0.1 -0.5
v -0.3 0 -0.5
v -0.2 -0.1 -0.5
v -0.2 0 -0.5
v -0.3 -0.2 -0.6
v -0.3 -0.1 -0.6
v -0.2 -0.2 -0.6
v -0.2 -0.1 -0.6
v 0.1 -0.2 -0.6
v 0.1 -0.1 -0.6
v 0.2 -0.2 -0.6
v 0.2 -0.1 -0.6
v -0.3 -0.2 0.7
v -0.3 -0.1 0.7
v -0.3 0 0.7
v -0.2 -0.2 0.7
v -0.2 -0.1 0.7
v -0.2 0 0.7
v 0.1 -0.2 0.7
v 0.1 -0.1 0.7
v 0.1 0 0.7
v 0.2 -0.2 0.7
v 0.2 -0.1 0.7
v 0.2 0 0.7
v -0.3 0.2 0.5
v -0.3 0.4 0.5
v -0.2 0.1 0.5
v -0.2 0.2 0.5
v -0.2 0.4 0.5
v 0.1 0.1 0.5
v 0.1 0.2 0.5
v 0.1 0.4 0.5
v 0.2 0.2 0.5
v 0.2 0.4 0.5
v -0.3 -0.2 0.4
v -0.3 -0.1 0.4
v -0.1 -0.2 0.4
v -0.1 -0.1 0.4
v 0 -0.2 0.4
v 0 -0.1 0.4
v 0.2 -0.2 0.4
v 0.2 -0.1 0.4
v -0.4 -0.3 0.3
v -0.4 -0.1 0.3
v -0.3 -0.3 0.3
v -0.3 -0.1 0.3
v -0.3 0.2 0.3
v -0.3 0.4 0.3
v -0.2 0.2 0.3
v -0.2 0.4 0.3
v 0.1 0.2 0.3
v 0.1 0.4 0.3
v 0.2 -0.3 0.3
v 0.2 -0.1 0.3
v 0.2 0.2 0.3
v 0.2 0.4 0.3
v 0.3 -0.3 0.3
v 0.3 -0.1 0.3
v -0.5 0.1 -0.2
v -0.5 0.2 -0.2
v -0.4 0.1 -0.2
v -0.4 0.2 -0.2
v 0.3 0.1 -0.2
v 0.3 0.2 -0.2
v 0.4 0.1 -0.2
v 0.4 0.2 -0.2
v -0.3 0.2 -0.3
v -0.3 0.5 -0.3
v -0.2 0.2 -0.3
v -0.2 0.4 -0.3
v 0.1 0.2 -0.3
v 0.1 0.4 -0.3
v 0.2 0.2 -0.3
v 0.2 0.5 -0.3
v -0.3 -0.2 -0.4
v -0.3 -0.1 -0.4
v -0.2 -0.1 -0.4
v 0.1 -0.1 -0.4
v 0.2 -0.2 -0.4
v 0.2 -0.1 -0.4
v -0.4 -0.3 -0.5
v -0.4 -0.2 -0.5
v -0.3 -0.3 -0.5
v -0.3 -0.2 -0.5
v 0.2 -0.3 -0.5
v 0.2 -0.2 -0.5
v 0.3 -0.3 -0.5
v 0.3 -0.2 -0.5
v -0.4 0.1 -0.6
v -0.4 0.2 -0.6
v -0.3 0.1 -0.6
v -0.3 0.2 -0.6
v 0.2 0.1 -0.6
v 0.2 0.2 -0.6
v 0.3 0.1 -0.6
v 0.3 0.2 -0.6
v -0.4 -0.2 -0.7
v -0.4 -0.1 -0.7
v -0.4 0 -0.7
v -0.4 0.1 -0.7
v -0.3 0 -0.7
v -0.3 0.1 -0.7
v -0.3 0.2 -0.7
v -0.2 -0.2 -0.7
v -0.2 -0.1 -0.7
v -0.2 0 -0.7
v -0.2 0.1 -0.7
v -0.2 0.2 -0.7
v 0.1 -0.2 -0.7
v 0.1 -0.1 -0.7
v 0.1 0 -0.7
v 0.1 0.1 -0.7
v 0.1 0.2 -0.7
v 0.2 0 -0.7
v 0.2 0.1 -0.7
v 0.2 0.2 -0.7
v 0.3 -0.2 -0.7
v 0.3 -0.1 -0.7
v 0.3 0 -0.7
v 0.3 0.1 -0.7
v -0.4 -0.3 0.6
v -0.3 -0.3 0.6
v 0.2 -0.3 0.6
v 0.3 -0.3 0.6
v -0.4 -0.3 0.3
v -0.3 -0.3 0.3
v 0.2 -0.3 0.3
v 0.3 -0.3 0.3
v -0.4 -0.3 -0.2
v -0.3 -0.3 -0.2
v 0.2 -0.3 -0.2
v 0.3 -0.3 -0.2
v -0.4 -0.3 -0.5
v -0.3 -0.3 -0.5
v 0.2 -0.3 -0.5
v 0.3 -0.3 -0.5
v -0.4 -0.2 0.8
v -0.2 -0.2 0.8
v 0.1 -0.2 0.8
v 0.3 -0.2 0.8
v -0.3 -0.2 0.7
v -0.2 -0.2 0.7
v 0.1 -0.2 0.7
v 0.2 -0.2 0.7
v -0.4 -0.2 0.6
v -0.3 -0.2 0.6
v 0.2 -0.2 0.6
v 0.3 -0.2 0.6
v -0.3 -0.2 0.5
v 0.2 -0.2 0.5
v -0.3 -0.2 0.4
v -0.1 -0.2 0.4
v 0 -0.2 0.4
v 0.2 -0.2 0.4
v -0.3 -0.2 -0.3
v -0.1 -0.2 -0.3
v 0 -0.2 -0.3
v 0.2 -0.2 -0.3
v -0.3 -0.2 -0.4
v 0.2 -0.2 -0.4
v -0.4 -0.2 -0.5
v -0.3 -0.2 -0.5
v 0.2 -0.2 -0.5
v 0.3 -0.2 -0.5
v -0.3 -0.2 -0.6
v -0.2 -0.2 -0.6
v 0.1 -0.2 -0.6
v 0.2 -0.2 -0.6
v -0.4 -0.2 -0.7
v -0.2 -0.2 -0.7
v 0.1 -0.2 -0.7
v 0.3 -0.2 -0.7
v -0.2 -0.1 0.8
v 0.1 -0.1 0.8
v -0.2 -0.1 0.7
v 0.1 -0.1 0.7
v -0.4 -0.1 0.3
v -0.3 -0.1 0.3
v 0.2 -0.1 0.3
v 0.3 -0.1 0.3
v -0.4 -0.1 -0.2
v -0.3 -0.1 -0.2
v 0.2 -0.1 -0.2
v 0.3 -0.1 -0.2
v -0.2 -0.1 -0.4
v 0.1 -0.1 -0.4
v 0.2 -0.1 -0.4
v -0.3 -0.1 -0.5
v -0.2 -0.1 -0.5
v 0.2 -0.1 -0.5
v -0.3 -0.1 -0.6
v -0.2 -0.1 -0.6
v 0.1 -0.1 -0.6
v 0.2 -0.1 -0.6
v -0.2 -0.1 -0.7
v 0.1 -0.1 -0.7
v -0.3 0 0.7
v -0.2 0 0.7
v 0.1 0 0.7
v 0.2 0 0.7
v -0.3 0 0.6
v 0.2 0 0.6
v -0.3 0 0.3
v 0.2 0 0.3
v -0.2 0 0.2
v 0.1 0 0.2
v -0.2 0 -0.1
v 0.1 0 -0.1
v -0.3 0 -0.2
v 0.2 0 -0.2
v -0.2 0 -0.3
v 0.1 0 -0.3
v 0.2 0 -0.3
v -0.3 0 -0.5
v -0.2 0 -0.5
v -0.5 0.1 0
v -0.4 0.1 0
v 0.3 0.1 0
v 0.4 0.1 0
v -0.5 0.1 -0.2
v -0.4 0.1 -0.2
v 0.3 0.1 -0.2
v 0.4 0.1 -0.2
v -0.2 0.4 0.6
v 0.1 0.4 0.6
v -0.3 0.4 0.5
v -0.2 0.4 0.5
v 0.1 0.4 0.5
v 0.2 0.4 0.5
v -0.3 0.4 0.4
v -0.2 0.4 0.4
v 0.1 0.4 0.4
v 0.2 0.4 0.4
v -0.3 0.4 0.3
v -0.2 0.4 0.3
v 0.1 0.4 0.3
v 0.2 0.4 0.3
v -0.3 0.4 -0.2
v -0.2 0.4 -0.2
v 0.1 0.4 -0.2
v 0.2 0.4 -0.2
v -0.2 0.4 -0.3
v 0.1 0.4 -0.3
v -0.3 -0.1 0.5
v 0.2 -0.1 0.5
v -0.3 -0.1 0.4
v -0.1 -0.1 0.4
v 0 -0.1 0.4
v 0.2 -0.1 0.4
v -0.3 -0.1 -0.3
v -0.2 -0.1 -0.3
v -0.1 -0.1 -0.3
v 0 -0.1 -0.3
v -0.3 -0.1 -0.4
v -0.2 -0.1 -0.4
v -0.4 0.1 0.8
v -0.3 0.1 0.8
v 0.2 0.1 0.8
v 0.3 0.1 0.8
v -0.4 0.1 0.7
v -0.3 0.1 0.7
v 0.2 0.1 0.7
v 0.3 0.1 0.7
v -0.2 0.1 0.5
v 0.1 0.1 0.5
v -0.2 0.1 0.2
v 0.1 0.1 0.2
v -0.2 0.1 -0.1
v 0.1 0.1 -0.1
v -0.4 0.1 -0.6
v -0.3 0.1 -0.6
v 0.2 0.1 -0.6
v 0.3 0.1 -0.6
v -0.4 0.1 -0.7
v -0.3 0.1 -0.7
v 0.2 0.1 -0.7
v 0.3 0.1 -0.7
v -0.3 0.2 0.8
v -0.2 0.2 0.8
v 0.1 0.2 0.8
v 0.2 0.2 0.8
v -0.4 0.2 0.7
v -0.3 0.2 0.7
v 0.2 0.2 0.7
v 0.3 0.2 0.7
v -0.3 0.2 0.6
v -0.2 0.2 0.6
v 0.1 0.2 0.6
v 0.2 0.2 0.6
v -0.3 0.2 0.5
v -0.2 0.2 0.5
v 0.1 0.2 0.5
v 0.2 0.2 0.5
v -0.3 0.2 0.4
v -0.2 0.2 0.4
v 0.1 0.2 0.4
v 0.2 0.2 0.4
v -0.3 0.2 0.3
v -0.2 0.2 0.3
v 0.1 0.2 0.3
v 0.2 0.2 0.3
v -0.5 0.2 0
v -0.4 0.2 0
v 0.3 0.2 0
v 0.4 0.2 0
v -0.2 0.2 -0.1
v 0.1 0.2 -0.1
v -0.5 0.2 -0.2
v -0.4 0.2 -0.2
v -0.3 0.2 -0.2
v -0.2 0.2 -0.2
v 0.1 0.2 -0.2
v 0.2 0.2 -0.2
v 0.3 0.2 -0.2
v 0.4 0.2 -0.2
v -0.3 0.2 -0.3
v -0.2 0.2 -0.3
v 0.1 0.2 -0.3
v 0.2 0.2 -0.3
v -0.4 0.2 -0.6
v -0.3 0.2 -0.6
v 0.2 0.2 -0.6
v 0.3 0.2 -0.6
v -0.3 0.2 -0.7
v -0.2 0.2 -0.7
v 0.1 0.2 -0.7
v 0.2 0.2 -0.7
v -0.3 0.5 0.6
v 0.2 0.5 0.6
v -0.3 0.5 -0.3
v 0.2 0.5 -0.3

# faces
f 3/4/1 2/4/1 1/4/1
f 4/4/1 2/4/1 3/4/1
f 10/6/1 6/6/1 5/6/1
f 11/6/1 6/6/1 10/6/1
f 12/6/1 6/6/1 11/6/1
f 13/6/1 8/6/1 7/6/1
f 14/6/1 8/6/1 13/6/1
f 15/6/1 8/6/1 14/6/1
f 17/5/1 10/5/1 9/5/1
f 18/6/1 11/6/1 10/6/1
f 18/5/1 10/5/1 17/5/1
f 19/5/1 12/5/1 11/5/1
f 19/6/1 11/6/1 18/6/1
f 20/6/1 6/6/1 12/6/1
f 20/5/1 12/5/1 19/5/1
f 21/6/1 6/6/1 20/6/1
f 22/6/1 13/6/1 7/6/1
f 23/5/1 14/5/1 13/5/1
f 23/6/1 13/6/1 22/6/1
f 24/6/1 15/6/1 14/6/1
f 24/5/1 14/5/1 23/5/1
f 25/5/1 16/5/1 15/5/1
f 25/6/1 15/6/1 24/6/1
f 26/5/1 16/5/1 25/5/1
f 27/4/1 18/4/1 17/4/1
f 28/4/1 18/4/1 27/4/1
f 29/6/1 19/6/1 18/6/1
f 29/4/1 18/4/1 28/4/1
f 29/6/1 21/6/1 20/6/1
f 29/6/1 20/6/1 19/6/1
f 30/4/1 22/4/1 21/4/1
f 30/6/1 21/6/1 29/6/1
f 31/6/1 24/6/1 23/6/1
f 31/4/1 22/4/1 30/4/1
f 31/6/1 23/6/1 22/6/1
f 31/6/1 25/6/1 24/6/1
f 32/4/1 26/4/1 25/4/1
f 32/6/1 25/6/1 31/6/1
f 33/4/1 26/4/1 32/4/1
f 34/4/1 26/4/1 33/4/1
f 35/1/1 28/1/1 27/1/1
f 36/4/1 30/4/1 29/4/1
f 36/1/1 28/1/1 35/1/1
f 36/4/1 29/4/1 28/4/1
f 36/4/1 31/4/1 30/4/1
f 36/4/1 33/4/1 32/4/1
f 36/4/1 32/4/1 31/4/1
f 37/4/1 33/4/1 36/4/1
f 38/4/1 33/4/1 37/4/1
f 39/1/1 34/1/1 33/1/1
f 39/4/1 33/4/1 38/4/1
f 40/1/1 34/1/1 39/1/1
f 41/4/1 37/4/1 36/4/1
f 42/4/1 37/4/1 41/4/1
f 43/4/1 39/4/1 38/4/1
f 44/4/1 39/4/1 43/4/1
f 49/4/1 46/4/1 45/4/1
f 50/4/1 46/4/1 49/4/1
f 57/4/1 48/4/1 47/4/1
f 58/4/1 48/4/1 57/4/1
f 59/4/1 52/4/1 51/4/1
f 60/4/1 54/4/1 53/4/1
f 61/4/1 54/4/1 60/4/1
f 62/4/1 56/4/1 55/4/1
f 63/4/1 61/4/1 60/4/1
f 63/4/1 62/4/1 61/4/1
f 63/4/1 59/4/1 51/4/1
f 63/4/1 60/4/1 59/4/1
f 64/4/1 56/4/1 62/4/1
f 64/4/1 62/4/1 63/4/1
f 68/2/1 66/2/1 65/2/1
f 68/2/1 67/2/1 66/2/1
f 69/2/1 67/2/1 68/2/1
f 72/6/1 71/6/1 70/6/1
f 73/6/1 71/6/1 72/6/1
f 78/5/1 75/5/1 74/5/1
f 79/5/1 75/5/1 78/5/1
f 80/5/1 77/5/1 76/5/1
f 81/5/1 77/5/1 80/5/1
f 86/4/1 83/4/1 82/4/1
f 86/4/1 84/4/1 83/4/1
f 87/4/1 84/4/1 86/4/1
f 88/4/1 84/4/1 87/4/1
f 89/4/1 84/4/1 88/4/1
f 92/4/1 86/4/1 85/4/1
f 93/4/1 86/4/1 92/4/1
f 94/4/1 88/4/1 87/4/1
f 95/4/1 88/4/1 94/4/1
f 96/4/1 91/4/1 90/4/1
f 97/4/1 91/4/1 96/4/1
f 103/6/1 99/6/1 98/6/1
f 104/6/1 99/6/1 103/6/1
f 105/6/1 99/6/1 104/6/1
f 106/6/1 101/6/1 100/6/1
f 107/6/1 101/6/1 106/6/1
f 108/6/1 101/6/1 107/6/1
f 110/5/1 103/5/1 102/5/1
f 111/6/1 104/6/1 103/6/1
f 111/5/1 103/5/1 110/5/1
f 112/6/1 104/6/1 111/6/1
f 113/6/1 99/6/1 105/6/1
f 114/6/1 99/6/1 113/6/1
f 115/6/1 106/6/1 100/6/1
f 116/6/1 106/6/1 115/6/1
f 117/6/1 108/6/1 107/6/1
f 118/5/1 109/5/1 108/5/1
f 118/6/1 108/6/1 117/6/1
f 119/5/1 109/5/1 118/5/1
f 120/4/1 111/4/1 110/4/1
f 121/6/1 112/6/1 111/6/1
f 121/4/1 111/4/1 120/4/1
f 121/6/1 114/6/1 113/6/1
f 121/6/1 113/6/1 112/6/1
f 122/4/1 115/4/1 114/4/1
f 122/6/1 114/6/1 121/6/1
f 123/6/1 116/6/1 115/6/1
f 123/4/1 115/4/1 122/4/1
f 124/6/1 116/6/1 123/6/1
f 125/6/2 126/6/2 130/6/2
f 130/6/2 126/6/2 131/6/2
f 131/6/2 126/6/2 132/6/2
f 127/6/2 128/6/2 133/6/2
f 133/6/2 128/6/2 134/6/2
f 134/6/2 128/6/2 135/6/2
f 129/5/2 130/5/2 137/5/2
f 130/6/2 131/6/2 138/6/2
f 137/5/2 130/5/2 138/5/2
f 138/6/2 131/6/2 139/6/2
f 132/6/2 126/6/2 140/6/2
f 140/6/2 126/6/2 141/6/2
f 127/6/2 133/6/2 142/6/2
f 142/6/2 133/6/2 143/6/2
f 134/6/2 135/6/2 144/6/2
f 135/5/2 136/5/2 145/5/2
f 144/6/2 135/6/2 145/6/2
f 145/5/2 136/5/2 146/5/2
f 137/4/2 138/4/2 147/4/2
f 138/6/2 139/6/2 148/6/2
f 147/4/2 138/4/2 148/4/2
f 140/6/2 141/6/2 148/6/2
f 139/6/2 140/6/2 148/6/2
f 141/4/2 142/4/2 149/4/2
f 148/6/2 141/6/2 149/6/2
f 143/6/2 144/6/2 150/6/2
f 149/4/2 142/4/2 150/4/2
f 142/6/2 143/6/2 150/6/2
f 144/6/2 145/6/2 150/6/2
f 150/6/2 145/6/2 151/6/2
f 152/5/2 153/5/2 156/5/2
f 156/5/2 153/5/2 157/5/2
f 154/5/2 155/5/2 158/5/2
f 158/5/2 155/5/2 159/5/2
f 160/4/2 161/4/2 164/4/2
f 161/4/2 162/4/2 164/4/2
f 164/4/2 162/4/2 165/4/2
f 165/4/2 162/4/2 166/4/2
f 166/4/2 162/4/2 167/4/2
f 163/4/2 164/4/2 170/4/2
f 170/4/2 164/4/2 171/4/2
f 165/4/2 166/4/2 172/4/2
f 172/4/2 166/4/2 173/4/2
f 168/4/2 169/4/2 174/4/2
f 174/4/2 169/4/2 175/4/2
f 176/6/2 177/6/2 178/6/2
f 178/6/2 177/6/2 179/6/2
f 180/4/2 181/4/2 184/4/2
f 184/4/2 181/4/2 185/4/2
f 182/4/2 183/4/2 192/4/2
f 192/4/2 183/4/2 193/4/2
f 186/4/2 187/4/2 194/4/2
f 188/4/2 189/4/2 195/4/2
f 195/4/2 189/4/2 196/4/2
f 190/4/2 191/4/2 197/4/2
f 195/4/2 196/4/2 198/4/2
f 196/4/2 197/4/2 198/4/2
f 186/4/2 194/4/2 198/4/2
f 194/4/2 195/4/2 198/4/2
f 197/4/2 191/4/2 199/4/2
f 198/4/2 197/4/2 199/4/2
f 200/6/2 201/6/2 205/6/2
f 205/6/2 201/6/2 206/6/2
f 206/6/2 201/6/2 207/6/2
f 202/6/2 203/6/2 208/6/2
f 208/6/2 203/6/2 209/6/2
f 209/6/2 203/6/2 210/6/2
f 204/5/2 205/5/2 212/5/2
f 205/6/2 206/6/2 213/6/2
f 212/5/2 205/5/2 213/5/2
f 206/5/2 207/5/2 214/5/2
f 213/6/2 206/6/2 214/6/2
f 207/6/2 201/6/2 215/6/2
f 214/5/2 207/5/2 215/5/2
f 215/6/2 201/6/2 216/6/2
f 202/6/2 208/6/2 217/6/2
f 208/5/2 209/5/2 218/5/2
f 217/6/2 208/6/2 218/6/2
f 209/6/2 210/6/2 219/6/2
f 218/5/2 209/5/2 219/5/2
f 210/5/2 211/5/2 220/5/2
f 219/6/2 210/6/2 220/6/2
f 220/5/2 211/5/2 221/5/2
f 212/4/2 213/4/2 222/4/2
f 222/4/2 213/4/2 223/4/2
f 213/6/2 214/6/2 224/6/2
f 223/4/2 213/4/2 224/4/2
f 215/6/2 216/6/2 224/6/2
f 214/6/2 215/6/2 224/6/2
f 216/4/2 217/4/2 225/4/2
f 224/6/2 216/6/2 225/6/2
f 218/6/2 219/6/2 226/6/2
f 225/4/2 217/4/2 226/4/2
f 217/6/2 218/6/2 226/6/2
f 219/6/2 220/6/2 226/6/2
f 220/4/2 221/4/2 227/4/2
f 226/6/2 220/6/2 227/6/2
f 227/4/2 221/4/2 228/4/2
f 228/4/2 221/4/2 229/4/2
f 222/1/2 223/1/2 230/1/2
f 224/4/2 225/4/2 231/4/2
f 230/1/2 223/1/2 231/1/2
f 223/4/2 224/4/2 231/4/2
f 225/4/2 226/4/2 231/4/2
f 227/4/2 228/4/2 231/4/2
f 226/4/2 227/4/2 231/4/2
f 231/4/2 228/4/2 232/4/2
f 232/4/2 228/4/2 233/4/2
f 228/1/2 229/1/2 234/1/2
f 233/4/2 228/4/2 234/4/2
f 234/1/2 229/1/2 235/1/2
f 231/4/2 232/4/2 236/4/2
f 236/4/2 232/4/2 237/4/2
f 233/4/2 234/4/2 238/4/2
f 238/4/2 234/4/2 239/4/2
f 240/4/2 241/4/2 242/4/2
f 242/4/2 241/4/2 243/4/2
f 248/4/3 246/4/3 245/4/3
f 248/1/3 247/1/3 246/1/3
f 249/1/3 247/1/3 248/1/3
f 251/5/3 245/5/3 244/5/3
f 252/4/3 248/4/3 245/4/3
f 252/5/3 245/5/3 251/5/3
f 253/3/3 249/3/3 248/3/3
f 253/4/3 248/4/3 252/4/3
f 254/4/3 250/4/3 249/4/3
f 254/3/3 249/3/3 253/3/3
f 255/4/3 250/4/3 254/4/3
f 257/2/3 253/2/3 252/2/3
f 257/2/3 255/2/3 254/2/3
f 257/2/3 254/2/3 253/2/3
f 258/2/3 255/2/3 257/2/3
f 259/2/3 255/2/3 258/2/3
f 260/2/3 255/2/3 259/2/3
f 261/4/3 258/4/3 257/4/3
f 261/3/3 259/3/3 258/3/3
f 262/4/3 260/4/3 259/4/3
f 262/3/3 259/3/3 261/3/3
f 263/4/3 260/4/3 262/4/3
f 264/5/3 257/5/3 256/5/3
f 265/4/3 261/4/3 257/4/3
f 265/5/3 257/5/3 264/5/3
f 266/1/3 262/1/3 261/1/3
f 266/4/3 261/4/3 265/4/3
f 267/1/3 262/1/3 266/1/3
f 270/4/3 269/4/3 268/4/3
f 271/4/3 269/4/3 270/4/3
f 274/4/3 273/4/3 272/4/3
f 275/4/3 273/4/3 274/4/3
f 278/6/3 277/6/3 276/6/3
f 279/6/3 277/6/3 278/6/3
f 282/4/3 281/4/3 280/4/3
f 283/4/3 281/4/3 282/4/3
f 285/4/3 281/4/3 283/4/3
f 288/4/3 285/4/3 284/4/3
f 289/4/3 281/4/3 285/4/3
f 289/4/3 285/4/3 288/4/3
f 290/6/3 287/6/3 286/6/3
f 291/6/3 287/6/3 290/6/3
f 294/6/3 293/6/3 292/6/3
f 295/6/3 293/6/3 294/6/3
f 298/4/3 297/4/3 296/4/3
f 299/4/3 297/4/3 298/4/3
f 302/4/3 301/4/3 300/4/3
f 303/4/3 301/4/3 302/4/3
f 306/4/3 305/4/3 304/4/3
f 307/4/3 305/4/3 306/4/3
f 310/4/3 309/4/3 308/4/3
f 311/4/3 309/4/3 310/4/3
f 314/2/3 313/2/3 312/2/3
f 315/2/3 313/2/3 314/2/3
f 318/6/3 317/6/3 316/6/3
f 319/6/3 317/6/3 318/6/3
f 322/4/3 321/4/3 320/4/3
f 323/4/3 321/4/3 322/4/3
f 328/4/3 325/4/3 324/4/3
f 329/4/3 325/4/3 328/4/3
f 330/6/3 327/6/3 326/6/3
f 331/6/3 327/6/3 330/6/3
f 334/6/3 333/6/3 332/6/3
f 336/6/3 334/6/3 332/6/3
f 337/2/3 335/2/3 334/2/3
f 337/6/3 334/6/3 336/6/3
f 339/2/3 335/2/3 337/2/3
f 340/2/3 335/2/3 339/2/3
f 340/6/3 339/6/3 338/6/3
f 341/2/3 335/2/3 340/2/3
f 342/6/3 340/6/3 338/6/3
f 343/4/3 341/4/3 340/4/3
f 343/6/3 340/6/3 342/6/3
f 344/4/3 341/4/3 343/4/3
f 347/4/3 346/4/3 345/4/3
f 348/4/3 346/4/3 347/4/3
f 351/5/3 350/5/3 349/5/3
f 352/5/3 350/5/3 351/5/3
f 355/5/3 354/5/3 353/5/3
f 356/5/3 354/5/3 355/5/3
f 357/5/4 358/5/4 360/5/4
f 358/4/4 359/4/4 361/4/4
f 360/5/4 358/5/4 361/5/4
f 361/4/4 359/4/4 362/4/4
f 361/2/4 362/2/4 364/2/4
f 364/2/4 362/2/4 365/2/4
f 363/5/4 364/5/4 366/5/4
f 364/4/4 365/4/4 367/4/4
f 366/5/4 364/5/4 367/5/4
f 367/4/4 365/4/4 368/4/4
f 369/4/4 370/4/4 372/4/4
f 372/4/4 370/4/4 373/4/4
f 371/2/4 372/2/4 374/2/4
f 374/2/4 372/2/4 375/2/4
f 375/4/4 376/4/4 377/4/4
f 377/4/4 376/4/4 378/4/4
f 379/6/4 380/6/4 381/6/4
f 381/6/4 380/6/4 382/6/4
f 383/6/4 384/6/4 385/6/4
f 385/6/4 384/6/4 386/6/4
f 387/6/4 388/6/4 389/6/4
f 389/6/4 388/6/4 390/6/4
f 391/4/4 392/4/4 393/4/4
f 393/4/4 392/4/4 394/4/4
f 395/4/4 396/4/4 399/4/4
f 399/4/4 396/4/4 400/4/4
f 397/6/4 398/6/4 401/6/4
f 401/6/4 398/6/4 402/6/4
f 403/4/4 404/4/4 405/4/4
f 405/4/4 404/4/4 406/4/4
f 407/4/4 408/4/4 409/4/4
f 409/4/4 408/4/4 410/4/4
f 411/4/4 412/4/4 413/4/4
f 413/4/4 412/4/4 414/4/4
f 414/4/4 412/4/4 416/4/4
f 415/4/4 416/4/4 417/4/4
f 416/4/4 412/4/4 418/4/4
f 417/4/4 416/4/4 418/4/4
f 419/6/4 420/6/4 421/6/4
f 419/6/4 421/6/4 422/6/4
f 419/6/4 422/6/4 423/6/4
f 423/6/4 422/6/4 424/6/4
f 425/6/4 426/6/4 427/6/4
f 427/6/4 426/6/4 428/6/4
f 429/6/4 430/6/4 431/6/4
f 431/6/4 430/6/4 432/6/4
f 433/4/4 434/4/4 435/4/4
f 435/4/4 434/4/4 436/4/4
f 437/4/4 438/4/4 439/4/4
f 439/4/4 438/4/4 440/4/4
f 442/4/4 443/4/4 445/4/4
f 443/1/4 444/1/4 445/1/4
f 445/1/4 444/1/4 446/1/4
f 441/5/4 442/5/4 448/5/4
f 442/4/4 445/4/4 449/4/4
f 448/5/4 442/5/4 449/5/4
f 445/3/4 446/3/4 450/3/4
f 449/4/4 445/4/4 450/4/4
f 446/4/4 447/4/4 451/4/4
f 450/3/4 446/3/4 451/3/4
f 451/4/4 447/4/4 452/4/4
f 449/2/4 450/2/4 454/2/4
f 451/2/4 452/2/4 454/2/4
f 450/2/4 451/2/4 454/2/4
f 454/2/4 452/2/4 455/2/4
f 455/2/4 452/2/4 456/2/4
f 456/2/4 452/2/4 457/2/4
f 454/4/4 455/4/4 458/4/4
f 455/3/4 456/3/4 458/3/4
f 456/4/4 457/4/4 459/4/4
f 458/3/4 456/3/4 459/3/4
f 459/4/4 457/4/4 460/4/4
f 453/5/4 454/5/4 461/5/4
f 454/4/4 458/4/4 462/4/4
f 461/5/4 454/5/4 462/5/4
f 458/1/4 459/1/4 463/1/4
f 462/4/4 458/4/4 463/4/4
f 463/1/4 459/1/4 464/1/4
f 469/6/5 466/6/5 465/6/5
f 470/6/5 466/6/5 469/6/5
f 471/6/5 468/6/5 467/6/5
f 472/6/5 468/6/5 471/6/5
f 477/6/5 474/6/5 473/6/5
f 478/6/5 474/6/5 477/6/5
f 479/6/5 476/6/5 475/6/5
f 480/6/5 476/6/5 479/6/5
f 485/5/5 482/5/5 481/5/5
f 486/5/5 482/5/5 485/5/5
f 487/5/5 484/5/5 483/5/5
f 488/5/5 484/5/5 487/5/5
f 489/5/5 485/5/5 481/5/5
f 490/5/5 485/5/5 489/5/5
f 491/5/5 484/5/5 488/5/5
f 492/5/5 484/5/5 491/5/5
f 495/6/5 494/6/5 493/6/5
f 496/6/5 494/6/5 495/6/5
f 497/6/5 494/6/5 496/6/5
f 498/6/5 494/6/5 497/6/5
f 500/6/5 497/6/5 496/6/5
f 501/6/5 497/6/5 500/6/5
f 503/6/5 500/6/5 499/6/5
f 503/6/5 502/6/5 501/6/5
f 503/6/5 501/6/5 500/6/5
f 504/6/5 502/6/5 503/6/5
f 509/5/5 506/5/5 505/5/5
f 512/5/5 508/5/5 507/5/5
f 513/5/5 510/5/5 509/5/5
f 513/5/5 509/5/5 505/5/5
f 514/5/5 510/5/5 513/5/5
f 515/5/5 512/5/5 511/5/5
f 516/5/5 508/5/5 512/5/5
f 516/5/5 512/5/5 515/5/5
f 519/2/5 518/2/5 517/2/5
f 520/2/5 518/2/5 519/2/5
f 525/4/5 522/4/5 521/4/5
f 526/4/5 522/4/5 525/4/5
f 527/4/5 524/4/5 523/4/5
f 528/4/5 524/4/5 527/4/5
f 533/2/5 530/2/5 529/2/5
f 534/4/5 531/4/5 530/4/5
f 535/4/5 533/4/5 532/4/5
f 536/2/5 530/2/5 533/2/5
f 536/4/5 533/4/5 535/4/5
f 537/4/5 534/4/5 530/4/5
f 537/2/5 530/2/5 536/2/5
f 538/4/5 534/4/5 537/4/5
f 539/2/5 537/2/5 536/2/5
f 540/2/5 537/2/5 539/2/5
f 545/4/5 542/4/5 541/4/5
f 546/4/5 544/4/5 543/4/5
f 547/4/5 542/4/5 545/4/5
f 548/4/5 546/4/5 543/4/5
f 549/2/5 543/2/5 542/2/5
f 549/4/5 542/4/5 547/4/5
f 550/4/5 548/4/5 543/4/5
f 550/2/5 543/2/5 549/2/5
f 551/4/5 549/4/5 547/4/5
f 551/4/5 550/4/5 549/4/5
f 552/4/5 548/4/5 550/4/5
f 552/4/5 550/4/5 551/4/5
f 553/4/5 551/4/5 547/4/5
f 554/4/5 548/4/5 552/4/5
f 555/4/5 551/4/5 553/4/5
f 555/2/5 552/2/5 551/2/5
f 556/4/5 554/4/5 552/4/5
f 556/2/5 552/2/5 555/2/5
f 557/4/5 554/4/5 556/4/5
f 558/4/5 555/4/5 553/4/5
f 559/4/5 555/4/5 558/4/5
f 564/4/5 561/4/5 560/4/5
f 565/4/5 561/4/5 564/4/5
f 566/4/5 563/4/5 562/4/5
f 567/4/5 563/4/5 566/4/5
f 571/4/5 569/4/5 568/4/5
f 572/4/5 569/4/5 571/4/5
f 574/4/5 571/4/5 570/4/5
f 574/4/5 573/4/5 572/4/5
f 574/4/5 572/4/5 571/4/5
f 575/4/5 573/4/5 574/4/5
f 576/4/5 573/4/5 575/4/5
f 577/4/5 573/4/5 576/4/5
f 579/4/5 576/4/5 575/4/5
f 580/4/5 576/4/5 579/4/5
f 582/4/5 579/4/5 578/4/5
f 582/4/5 581/4/5 580/4/5
f 582/4/5 580/4/5 579/4/5
f 583/4/5 581/4/5 582/4/5
f 584/4/5 581/4/5 583/4/5
f 585/4/5 581/4/5 584/4/5
f 586/4/5 584/4/5 583/4/5
f 587/4/5 584/4/5 586/4/5
f 588/6/6 589/6/6 590/6/6
f 590/6/6 589/6/6 591/6/6
f 591/6/6 589/6/6 592/6/6
f 592/6/6 589/6/6 593/6/6
f 591/6/6 592/6/6 596/6/6
f 596/6/6 592/6/6 597/6/6
f 594/6/6 595/6/6 598/6/6
f 598/6/6 595/6/6 599/6/6
f 600/1/6 601/1/6 604/1/6
f 604/1/6 601/1/6 605/1/6
f 602/1/6 603/1/6 606/1/6
f 606/1/6 603/1/6 607/1/6
f 608/2/6 609/2/6 610/2/6
f 610/2/6 609/2/6 611/2/6
f 610/4/6 611/4/6 612/4/6
f 612/4/6 611/4/6 613/4/6
f 614/1/6 615/1/6 618/1/6
f 618/1/6 615/1/6 619/1/6
f 616/1/6 617/1/6 620/1/6
f 620/1/6 617/1/6 621/1/6
f 622/4/6 623/4/6 627/4/6
f 624/4/6 625/4/6 628/4/6
f 626/4/6 627/4/6 630/4/6
f 627/4/6 623/4/6 630/4/6
f 623/2/6 624/2/6 631/2/6
f 630/4/6 623/4/6 631/4/6
f 628/4/6 629/4/6 632/4/6
f 631/2/6 624/2/6 632/2/6
f 624/4/6 628/4/6 632/4/6
f 632/4/6 629/4/6 633/4/6
f 626/4/6 630/4/6 634/4/6
f 631/2/6 632/2/6 635/2/6
f 635/2/6 632/2/6 636/2/6
f 633/4/6 629/4/6 637/4/6
f 626/4/6 634/4/6 638/4/6
f 634/4/6 635/4/6 638/4/6
f 638/4/6 635/4/6 639/4/6
f 636/4/6 637/4/6 640/4/6
f 637/4/6 629/4/6 641/4/6
f 640/4/6 637/4/6 641/4/6
f 626/4/6 638/4/6 642/4/6
f 641/4/6 629/4/6 645/4/6
f 642/4/6 643/4/6 647/4/6
f 626/4/6 642/4/6 647/4/6
f 644/4/6 645/4/6 648/4/6
f 645/4/6 629/4/6 648/4/6
f 646/4/6 647/4/6 650/4/6
f 647/4/6 643/4/6 650/4/6
f 648/4/6 649/4/6 651/4/6
f 644/4/6 648/4/6 651/4/6
f 646/4/6 650/4/6 652/4/6
f 652/4/6 650/4/6 653/4/6
f 653/4/6 650/4/6 654/4/6
f 650/2/6 651/2/6 655/2/6
f 654/4/6 650/4/6 655/4/6
f 651/4/6 649/4/6 656/4/6
f 655/2/6 651/2/6 656/2/6
f 656/4/6 649/4/6 657/4/6
f 657/4/6 649/4/6 658/4/6
f 658/4/6 649/4/6 659/4/6
f 653/4/6 654/4/6 660/4/6
f 655/2/6 656/2/6 661/2/6
f 661/2/6 656/2/6 662/2/6
f 657/4/6 658/4/6 663/4/6
f 653/4/6 660/4/6 664/4/6
f 660/4/6 661/4/6 664/4/6
f 664/4/6 661/4/6 665/4/6
f 662/4/6 663/4/6 666/4/6
f 663/4/6 658/4/6 666/4/6
f 666/4/6 658/4/6 667/4/6
f 665/4/6 661/4/6 668/4/6
f 661/2/6 662/2/6 669/2/6
f 668/4/6 661/4/6 669/4/6
f 662/4/6 666/4/6 670/4/6
f 669/2/6 662/2/6 670/2/6
f 670/4/6 666/4/6 671/4/6
f 672/4/6 673/4/6 674/4/6
f 674/4/6 673/4/6 675/4/6
