# MagicaVoxel @ Ephtracy

# group
o 

# material
mtllib yellow_shortvox.vox.mtl
usemtl palette

# normals
vn -1 0 0
vn 1 0 0
vn 0 0 1
vn 0 0 -1
vn 0 -1 0
vn 0 1 0

# texcoords
vt 0.0136719 0.5
vt 0.826172 0.5
vt 0.845703 0.5
vt 0.958984 0.5
vt 0.994141 0.5

# verts
v -0.5 0.1 0.3
v -0.5 0.1 0.1
v -0.5 0.2 0.3
v -0.5 0.2 0.1
v -0.4 -0.3 0.6
v -0.4 -0.3 0.3
v -0.4 -0.3 0.1
v -0.4 -0.3 -0.2
v -0.4 -0.2 0.8
v -0.4 -0.2 0.6
v -0.4 -0.2 0.5
v -0.4 -0.2 0.4
v -0.4 -0.2 0
v -0.4 -0.2 -0.1
v -0.4 -0.2 -0.2
v -0.4 -0.2 -0.4
v -0.4 -0.1 0.8
v -0.4 -0.1 0.6
v -0.4 -0.1 0.5
v -0.4 -0.1 0.4
v -0.4 -0.1 0.3
v -0.4 -0.1 0.1
v -0.4 -0.1 0
v -0.4 -0.1 -0.1
v -0.4 -0.1 -0.2
v -0.4 -0.1 -0.4
v -0.4 0 0.6
v -0.4 0 0.4
v -0.4 0 0.1
v -0.4 0 -0.2
v -0.4 0.1 0.8
v -0.4 0.1 0.7
v -0.4 0.1 0.3
v -0.4 0.1 0.1
v -0.4 0.1 -0.3
v -0.4 0.1 -0.4
v -0.4 0.2 0.7
v -0.4 0.2 0.3
v -0.4 0.2 0.1
v -0.4 0.2 -0.3
v -0.3 0.1 0.8
v -0.3 0.1 0.7
v -0.3 0.1 -0.3
v -0.3 0.1 -0.4
v -0.3 0.2 0.8
v -0.3 0.2 0.7
v -0.3 0.2 0.6
v -0.3 0.2 0.5
v -0.3 0.2 0.4
v -0.3 0.2 0.3
v -0.3 0.2 0.1
v -0.3 0.2 0
v -0.3 0.2 -0.3
v -0.3 0.2 -0.4
v -0.3 0.4 0.5
v -0.3 0.4 0.4
v -0.3 0.4 0.3
v -0.3 0.4 0.1
v -0.3 0.5 0.6
v -0.3 0.5 0
v -0.2 -0.1 0
v -0.2 -0.1 -0.1
v -0.2 -0.1 -0.2
v -0.2 0 0
v -0.2 0 -0.2
v -0.1 -0.2 0.4
v -0.1 -0.2 0
v -0.1 -0.1 0.4
v -0.1 -0.1 0
v 0.1 -0.2 0.8
v 0.1 -0.2 0.7
v 0.1 -0.2 -0.3
v 0.1 -0.2 -0.4
v 0.1 -0.1 0.8
v 0.1 -0.1 0.7
v 0.1 -0.1 -0.3
v 0.1 -0.1 -0.4
v 0.1 0.1 0.5
v 0.1 0.1 0.2
v 0.1 0.2 0.6
v 0.1 0.2 0.5
v 0.1 0.2 0.4
v 0.1 0.2 0.3
v 0.1 0.2 0.2
v 0.1 0.2 0.1
v 0.1 0.2 0
v 0.1 0.4 0.6
v 0.1 0.4 0.5
v 0.1 0.4 0.4
v 0.1 0.4 0.3
v 0.1 0.4 0.1
v 0.1 0.4 0
v 0.2 -0.3 0.6
v 0.2 -0.3 0.3
v 0.2 -0.3 0.1
v 0.2 -0.3 -0.2
v 0.2 -0.2 0.7
v 0.2 -0.2 0.6
v 0.2 -0.2 0.5
v 0.2 -0.2 0.4
v 0.2 -0.2 0
v 0.2 -0.2 -0.1
v 0.2 -0.2 -0.2
v 0.2 -0.2 -0.3
v 0.2 -0.1 0.7
v 0.2 -0.1 0.6
v 0.2 -0.1 0.5
v 0.2 -0.1 0.4
v 0.2 -0.1 0.3
v 0.2 -0.1 0.1
v 0.2 -0.1 0
v 0.2 -0.1 -0.1
v 0.2 -0.1 -0.2
v 0.2 -0.1 -0.3
v 0.2 0 0.7
v 0.2 0 0.6
v 0.2 0 0.4
v 0.2 0 0.1
v 0.2 0 0
v -0.3 -0.3 0.6
v -0.3 -0.3 0.3
v -0.3 -0.3 0.1
v -0.3 -0.3 -0.2
v -0.3 -0.2 0.7
v -0.3 -0.2 0.6
v -0.3 -0.2 0.5
v -0.3 -0.2 0.4
v -0.3 -0.2 0
v -0.3 -0.2 -0.1
v -0.3 -0.2 -0.2
v -0.3 -0.2 -0.3
v -0.3 -0.1 0.7
v -0.3 -0.1 0.6
v -0.3 -0.1 0.5
v -0.3 -0.1 0.4
v -0.3 -0.1 0.3
v -0.3 -0.1 0.1
v -0.3 -0.1 0
v -0.3 -0.1 -0.1
v -0.3 -0.1 -0.2
v -0.3 -0.1 -0.3
v -0.3 0 0.7
v -0.3 0 0.6
v -0.3 0 0.4
v -0.3 0 0.1
v -0.3 0 -0.2
v -0.2 -0.2 0.8
v -0.2 -0.2 0.7
v -0.2 -0.2 -0.3
v -0.2 -0.2 -0.4
v -0.2 -0.1 0.8
v -0.2 -0.1 0.7
v -0.2 -0.1 -0.3
v -0.2 -0.1 -0.4
v -0.2 0.1 0.5
v -0.2 0.1 0.2
v -0.2 0.2 0.6
v -0.2 0.2 0.5
v -0.2 0.2 0.4
v -0.2 0.2 0.3
v -0.2 0.2 0.2
v -0.2 0.2 0.1
v -0.2 0.2 0
v -0.2 0.4 0.6
v -0.2 0.4 0.5
v -0.2 0.4 0.4
v -0.2 0.4 0.3
v -0.2 0.4 0.1
v -0.2 0.4 0
v 0 -0.2 0.4
v 0 -0.2 0
v 0 -0.1 0.4
v 0 -0.1 0
v 0.2 0.1 0.8
v 0.2 0.1 0.7
v 0.2 0.1 -0.3
v 0.2 0.1 -0.4
v 0.2 0.2 0.8
v 0.2 0.2 0.7
v 0.2 0.2 0.6
v 0.2 0.2 0.5
v 0.2 0.2 0.4
v 0.2 0.2 0.3
v 0.2 0.2 0.1
v 0.2 0.2 0
v 0.2 0.2 -0.3
v 0.2 0.2 -0.4
v 0.2 0.4 0.5
v 0.2 0.4 0.4
v 0.2 0.4 0.3
v 0.2 0.4 0.1
v 0.2 0.5 0.6
v 0.2 0.5 0
v 0.3 -0.3 0.6
v 0.3 -0.3 0.3
v 0.3 -0.3 0.1
v 0.3 -0.3 -0.2
v 0.3 -0.2 0.8
v 0.3 -0.2 0.6
v 0.3 -0.2 0.5
v 0.3 -0.2 0.4
v 0.3 -0.2 0
v 0.3 -0.2 -0.1
v 0.3 -0.2 -0.2
v 0.3 -0.2 -0.4
v 0.3 -0.1 0.8
v 0.3 -0.1 0.6
v 0.3 -0.1 0.5
v 0.3 -0.1 0.4
v 0.3 -0.1 0.3
v 0.3 -0.1 0.1
v 0.3 -0.1 0
v 0.3 -0.1 -0.1
v 0.3 -0.1 -0.2
v 0.3 -0.1 -0.4
v 0.3 0 0.6
v 0.3 0 0.4
v 0.3 0 0.1
v 0.3 0 -0.2
v 0.3 0.1 0.8
v 0.3 0.1 0.7
v 0.3 0.1 0.3
v 0.3 0.1 0.1
v 0.3 0.1 -0.3
v 0.3 0.1 -0.4
v 0.3 0.2 0.7
v 0.3 0.2 0.3
v 0.3 0.2 0.1
v 0.3 0.2 -0.3
v 0.4 0.1 0.3
v 0.4 0.1 0.1
v 0.4 0.2 0.3
v 0.4 0.2 0.1
v -0.4 -0.2 0.8
v -0.4 -0.1 0.8
v -0.4 0.1 0.8
v -0.3 0 0.8
v -0.3 0.1 0.8
v -0.3 0.2 0.8
v -0.2 -0.2 0.8
v -0.2 -0.1 0.8
v -0.2 0 0.8
v -0.2 0.1 0.8
v -0.2 0.2 0.8
v 0.1 -0.2 0.8
v 0.1 -0.1 0.8
v 0.1 0 0.8
v 0.1 0.1 0.8
v 0.1 0.2 0.8
v 0.2 0 0.8
v 0.2 0.1 0.8
v 0.2 0.2 0.8
v 0.3 -0.2 0.8
v 0.3 -0.1 0.8
v 0.3 0.1 0.8
v -0.4 0.1 0.7
v -0.4 0.2 0.7
v -0.3 0.1 0.7
v -0.3 0.2 0.7
v 0.2 0.1 0.7
v 0.2 0.2 0.7
v 0.3 0.1 0.7
v 0.3 0.2 0.7
v -0.4 -0.3 0.6
v -0.4 -0.2 0.6
v -0.3 -0.3 0.6
v -0.3 -0.2 0.6
v -0.3 0.2 0.6
v -0.3 0.5 0.6
v -0.2 0.2 0.6
v -0.2 0.4 0.6
v 0.1 0.2 0.6
v 0.1 0.4 0.6
v 0.2 -0.3 0.6
v 0.2 -0.2 0.6
v 0.2 0.2 0.6
v 0.2 0.5 0.6
v 0.3 -0.3 0.6
v 0.3 -0.2 0.6
v -0.3 -0.2 0.5
v -0.3 -0.1 0.5
v 0.2 -0.2 0.5
v 0.2 -0.1 0.5
v -0.3 0.2 0.4
v -0.3 0.4 0.4
v -0.2 0.2 0.4
v -0.2 0.4 0.4
v 0.1 0.2 0.4
v 0.1 0.4 0.4
v 0.2 0.2 0.4
v 0.2 0.4 0.4
v -0.5 0.1 0.3
v -0.5 0.2 0.3
v -0.4 0.1 0.3
v -0.4 0.2 0.3
v 0.3 0.1 0.3
v 0.3 0.2 0.3
v 0.4 0.1 0.3
v 0.4 0.2 0.3
v -0.2 0.1 0.2
v -0.2 0.2 0.2
v 0.1 0.1 0.2
v 0.1 0.2 0.2
v -0.4 -0.3 0.1
v -0.4 -0.1 0.1
v -0.3 -0.3 0.1
v -0.3 -0.1 0.1
v -0.3 0.2 0.1
v -0.3 0.4 0.1
v -0.2 0.2 0.1
v -0.2 0.4 0.1
v 0.1 0.2 0.1
v 0.1 0.4 0.1
v 0.2 -0.3 0.1
v 0.2 -0.1 0.1
v 0.2 0.2 0.1
v 0.2 0.4 0.1
v 0.3 -0.3 0.1
v 0.3 -0.1 0.1
v -0.3 -0.2 0
v -0.3 -0.1 0
v -0.2 -0.1 0
v -0.2 0 0
v -0.1 -0.2 0
v -0.1 -0.1 0
v 0 -0.2 0
v 0 -0.1 0
v 0.1 -0.1 0
v 0.1 0 0
v 0.2 -0.2 0
v 0.2 -0.1 0
v 0.2 0 0
v -0.3 -0.1 -0.2
v -0.3 0 -0.2
v -0.2 -0.1 -0.2
v -0.2 0 -0.2
v -0.3 -0.2 -0.3
v -0.3 -0.1 -0.3
v -0.2 -0.2 -0.3
v -0.2 -0.1 -0.3
v 0.1 -0.2 -0.3
v 0.1 -0.1 -0.3
v 0.2 -0.2 -0.3
v 0.2 -0.1 -0.3
v -0.3 -0.2 0.7
v -0.3 -0.1 0.7
v -0.3 0 0.7
v -0.2 -0.2 0.7
v -0.2 -0.1 0.7
v -0.2 0 0.7
v 0.1 -0.2 0.7
v 0.1 -0.1 0.7
v 0.1 0 0.7
v 0.2 -0.2 0.7
v 0.2 -0.1 0.7
v 0.2 0 0.7
v -0.3 0.2 0.5
v -0.3 0.4 0.5
v -0.2 0.1 0.5
v -0.2 0.2 0.5
v -0.2 0.4 0.5
v 0.1 0.1 0.5
v 0.1 0.2 0.5
v 0.1 0.4 0.5
v 0.2 0.2 0.5
v 0.2 0.4 0.5
v -0.3 -0.2 0.4
v -0.3 -0.1 0.4
v -0.1 -0.2 0.4
v -0.1 -0.1 0.4
v 0 -0.2 0.4
v 0 -0.1 0.4
v 0.2 -0.2 0.4
v 0.2 -0.1 0.4
v -0.4 -0.3 0.3
v -0.4 -0.1 0.3
v -0.3 -0.3 0.3
v -0.3 -0.1 0.3
v -0.3 0.2 0.3
v -0.3 0.4 0.3
v -0.2 0.2 0.3
v -0.2 0.4 0.3
v 0.1 0.2 0.3
v 0.1 0.4 0.3
v 0.2 -0.3 0.3
v 0.2 -0.1 0.3
v 0.2 0.2 0.3
v 0.2 0.4 0.3
v 0.3 -0.3 0.3
v 0.3 -0.1 0.3
v -0.5 0.1 0.1
v -0.5 0.2 0.1
v -0.4 0.1 0.1
v -0.4 0.2 0.1
v 0.3 0.1 0.1
v 0.3 0.2 0.1
v 0.4 0.1 0.1
v 0.4 0.2 0.1
v -0.3 0.2 0
v -0.3 0.5 0
v -0.2 0.2 0
v -0.2 0.4 0
v 0.1 0.2 0
v 0.1 0.4 0
v 0.2 0.2 0
v 0.2 0.5 0
v -0.3 -0.2 -0.1
v -0.3 -0.1 -0.1
v -0.2 -0.1 -0.1
v 0.1 -0.1 -0.1
v 0.2 -0.2 -0.1
v 0.2 -0.1 -0.1
v -0.4 -0.3 -0.2
v -0.4 -0.2 -0.2
v -0.3 -0.3 -0.2
v -0.3 -0.2 -0.2
v 0.2 -0.3 -0.2
v 0.2 -0.2 -0.2
v 0.3 -0.3 -0.2
v 0.3 -0.2 -0.2
v -0.4 0.1 -0.3
v -0.4 0.2 -0.3
v -0.3 0.1 -0.3
v -0.3 0.2 -0.3
v 0.2 0.1 -0.3
v 0.2 0.2 -0.3
v 0.3 0.1 -0.3
v 0.3 0.2 -0.3
v -0.4 -0.2 -0.4
v -0.4 -0.1 -0.4
v -0.4 0.1 -0.4
v -0.3 0 -0.4
v -0.3 0.1 -0.4
v -0.3 0.2 -0.4
v -0.2 -0.2 -0.4
v -0.2 -0.1 -0.4
v -0.2 0 -0.4
v -0.2 0.1 -0.4
v -0.2 0.2 -0.4
v 0.1 -0.2 -0.4
v 0.1 -0.1 -0.4
v 0.1 0 -0.4
v 0.1 0.1 -0.4
v 0.1 0.2 -0.4
v 0.2 0 -0.4
v 0.2 0.1 -0.4
v 0.2 0.2 -0.4
v 0.3 -0.2 -0.4
v 0.3 -0.1 -0.4
v 0.3 0.1 -0.4
v -0.4 -0.3 0.6
v -0.3 -0.3 0.6
v 0.2 -0.3 0.6
v 0.3 -0.3 0.6
v -0.4 -0.3 0.3
v -0.3 -0.3 0.3
v 0.2 -0.3 0.3
v 0.3 -0.3 0.3
v -0.4 -0.3 0.1
v -0.3 -0.3 0.1
v 0.2 -0.3 0.1
v 0.3 -0.3 0.1
v -0.4 -0.3 -0.2
v -0.3 -0.3 -0.2
v 0.2 -0.3 -0.2
v 0.3 -0.3 -0.2
v -0.4 -0.2 0.8
v -0.2 -0.2 0.8
v 0.1 -0.2 0.8
v 0.3 -0.2 0.8
v -0.3 -0.2 0.7
v -0.2 -0.2 0.7
v 0.1 -0.2 0.7
v 0.2 -0.2 0.7
v -0.4 -0.2 0.6
v -0.3 -0.2 0.6
v 0.2 -0.2 0.6
v 0.3 -0.2 0.6
v -0.3 -0.2 0.5
v 0.2 -0.2 0.5
v -0.3 -0.2 0.4
v -0.1 -0.2 0.4
v 0 -0.2 0.4
v 0.2 -0.2 0.4
v -0.3 -0.2 0
v -0.1 -0.2 0
v 0 -0.2 0
v 0.2 -0.2 0
v -0.3 -0.2 -0.1
v 0.2 -0.2 -0.1
v -0.4 -0.2 -0.2
v -0.3 -0.2 -0.2
v 0.2 -0.2 -0.2
v 0.3 -0.2 -0.2
v -0.3 -0.2 -0.3
v -0.2 -0.2 -0.3
v 0.1 -0.2 -0.3
v 0.2 -0.2 -0.3
v -0.4 -0.2 -0.4
v -0.2 -0.2 -0.4
v 0.1 -0.2 -0.4
v 0.3 -0.2 -0.4
v -0.2 -0.1 0.8
v 0.1 -0.1 0.8
v -0.2 -0.1 0.7
v 0.1 -0.1 0.7
v -0.4 -0.1 0.3
v -0.3 -0.1 0.3
v 0.2 -0.1 0.3
v 0.3 -0.1 0.3
v -0.4 -0.1 0.1
v -0.3 -0.1 0.1
v 0.2 -0.1 0.1
v 0.3 -0.1 0.1
v -0.2 -0.1 -0.1
v 0.1 -0.1 -0.1
v 0.2 -0.1 -0.1
v -0.3 -0.1 -0.2
v -0.2 -0.1 -0.2
v 0.2 -0.1 -0.2
v -0.3 -0.1 -0.3
v -0.2 -0.1 -0.3
v 0.1 -0.1 -0.3
v 0.2 -0.1 -0.3
v -0.2 -0.1 -0.4
v 0.1 -0.1 -0.4
v -0.3 0 0.7
v -0.2 0 0.7
v 0.1 0 0.7
v 0.2 0 0.7
v -0.3 0 0.6
v 0.2 0 0.6
v -0.3 0 0.4
v 0.2 0 0.4
v -0.3 0 0.1
v 0.2 0 0.1
v -0.2 0 0
v 0.1 0 0
v 0.2 0 0
v -0.3 0 -0.2
v -0.2 0 -0.2
v -0.5 0.1 0.3
v -0.4 0.1 0.3
v 0.3 0.1 0.3
v 0.4 0.1 0.3
v -0.5 0.1 0.1
v -0.4 0.1 0.1
v 0.3 0.1 0.1
v 0.4 0.1 0.1
v -0.2 0.4 0.6
v 0.1 0.4 0.6
v -0.3 0.4 0.5
v -0.2 0.4 0.5
v 0.1 0.4 0.5
v 0.2 0.4 0.5
v -0.3 0.4 0.4
v -0.2 0.4 0.4
v 0.1 0.4 0.4
v 0.2 0.4 0.4
v -0.3 0.4 0.3
v -0.2 0.4 0.3
v 0.1 0.4 0.3
v 0.2 0.4 0.3
v -0.3 0.4 0.1
v -0.2 0.4 0.1
v 0.1 0.4 0.1
v 0.2 0.4 0.1
v -0.2 0.4 0
v 0.1 0.4 0
v -0.3 -0.1 0.5
v 0.2 -0.1 0.5
v -0.3 -0.1 0.4
v -0.1 -0.1 0.4
v 0 -0.1 0.4
v 0.2 -0.1 0.4
v -0.3 -0.1 0
v -0.2 -0.1 0
v -0.1 -0.1 0
v 0 -0.1 0
v -0.3 -0.1 -0.1
v -0.2 -0.1 -0.1
v -0.4 0.1 0.8
v -0.3 0.1 0.8
v 0.2 0.1 0.8
v 0.3 0.1 0.8
v -0.4 0.1 0.7
v -0.3 0.1 0.7
v 0.2 0.1 0.7
v 0.3 0.1 0.7
v -0.2 0.1 0.5
v 0.1 0.1 0.5
v -0.2 0.1 0.2
v 0.1 0.1 0.2
v -0.4 0.1 -0.3
v -0.3 0.1 -0.3
v 0.2 0.1 -0.3
v 0.3 0.1 -0.3
v -0.4 0.1 -0.4
v -0.3 0.1 -0.4
v 0.2 0.1 -0.4
v 0.3 0.1 -0.4
v -0.3 0.2 0.8
v -0.2 0.2 0.8
v 0.1 0.2 0.8
v 0.2 0.2 0.8
v -0.4 0.2 0.7
v -0.3 0.2 0.7
v 0.2 0.2 0.7
v 0.3 0.2 0.7
v -0.3 0.2 0.6
v -0.2 0.2 0.6
v 0.1 0.2 0.6
v 0.2 0.2 0.6
v -0.3 0.2 0.5
v -0.2 0.2 0.5
v 0.1 0.2 0.5
v 0.2 0.2 0.5
v -0.3 0.2 0.4
v -0.2 0.2 0.4
v 0.1 0.2 0.4
v 0.2 0.2 0.4
v -0.5 0.2 0.3
v -0.4 0.2 0.3
v -0.3 0.2 0.3
v -0.2 0.2 0.3
v 0.1 0.2 0.3
v 0.2 0.2 0.3
v 0.3 0.2 0.3
v 0.4 0.2 0.3
v -0.2 0.2 0.2
v 0.1 0.2 0.2
v -0.5 0.2 0.1
v -0.4 0.2 0.1
v -0.3 0.2 0.1
v -0.2 0.2 0.1
v 0.1 0.2 0.1
v 0.2 0.2 0.1
v 0.3 0.2 0.1
v 0.4 0.2 0.1
v -0.3 0.2 0
v -0.2 0.2 0
v 0.1 0.2 0
v 0.2 0.2 0
v -0.4 0.2 -0.3
v -0.3 0.2 -0.3
v 0.2 0.2 -0.3
v 0.3 0.2 -0.3
v -0.3 0.2 -0.4
v -0.2 0.2 -0.4
v 0.1 0.2 -0.4
v 0.2 0.2 -0.4
v -0.3 0.5 0.6
v 0.2 0.5 0.6
v -0.3 0.5 0
v 0.2 0.5 0

# faces
f 3/1/1 2/1/1 1/1/1
f 4/1/1 2/1/1 3/1/1
f 10/5/1 6/5/1 5/5/1
f 11/5/1 6/5/1 10/5/1
f 12/5/1 6/5/1 11/5/1
f 13/5/1 8/5/1 7/5/1
f 14/5/1 8/5/1 13/5/1
f 15/5/1 8/5/1 14/5/1
f 17/4/1 10/4/1 9/4/1
f 18/5/1 11/5/1 10/5/1
f 18/4/1 10/4/1 17/4/1
f 19/4/1 12/4/1 11/4/1
f 19/5/1 11/5/1 18/5/1
f 20/5/1 6/5/1 12/5/1
f 20/4/1 12/4/1 19/4/1
f 21/5/1 6/5/1 20/5/1
f 22/5/1 13/5/1 7/5/1
f 23/4/1 14/4/1 13/4/1
f 23/5/1 13/5/1 22/5/1
f 24/5/1 15/5/1 14/5/1
f 24/4/1 14/4/1 23/4/1
f 25/4/1 16/4/1 15/4/1
f 25/5/1 15/5/1 24/5/1
f 26/4/1 16/4/1 25/4/1
f 27/5/1 19/5/1 18/5/1
f 27/1/1 18/1/1 17/1/1
f 27/5/1 20/5/1 19/5/1
f 28/1/1 21/1/1 20/1/1
f 28/5/1 20/5/1 27/5/1
f 28/1/1 22/1/1 21/1/1
f 29/5/1 24/5/1 23/5/1
f 29/1/1 22/1/1 28/1/1
f 29/5/1 23/5/1 22/5/1
f 29/5/1 25/5/1 24/5/1
f 30/1/1 26/1/1 25/1/1
f 30/5/1 25/5/1 29/5/1
f 31/1/1 28/1/1 27/1/1
f 31/1/1 29/1/1 28/1/1
f 31/1/1 30/1/1 29/1/1
f 31/1/1 27/1/1 17/1/1
f 32/1/1 30/1/1 31/1/1
f 33/1/1 30/1/1 32/1/1
f 34/1/1 30/1/1 33/1/1
f 35/1/1 26/1/1 30/1/1
f 35/1/1 30/1/1 34/1/1
f 36/1/1 26/1/1 35/1/1
f 37/1/1 33/1/1 32/1/1
f 38/1/1 33/1/1 37/1/1
f 39/1/1 35/1/1 34/1/1
f 40/1/1 35/1/1 39/1/1
f 45/1/1 42/1/1 41/1/1
f 46/1/1 42/1/1 45/1/1
f 53/1/1 44/1/1 43/1/1
f 54/1/1 44/1/1 53/1/1
f 55/1/1 48/1/1 47/1/1
f 56/1/1 50/1/1 49/1/1
f 57/1/1 50/1/1 56/1/1
f 58/1/1 52/1/1 51/1/1
f 59/1/1 57/1/1 56/1/1
f 59/1/1 58/1/1 57/1/1
f 59/1/1 55/1/1 47/1/1
f 59/1/1 56/1/1 55/1/1
f 60/1/1 52/1/1 58/1/1
f 60/1/1 58/1/1 59/1/1
f 64/2/1 62/2/1 61/2/1
f 64/2/1 63/2/1 62/2/1
f 65/2/1 63/2/1 64/2/1
f 68/5/1 67/5/1 66/5/1
f 69/5/1 67/5/1 68/5/1
f 74/4/1 71/4/1 70/4/1
f 75/4/1 71/4/1 74/4/1
f 76/4/1 73/4/1 72/4/1
f 77/4/1 73/4/1 76/4/1
f 81/1/1 79/1/1 78/1/1
f 82/1/1 79/1/1 81/1/1
f 83/1/1 79/1/1 82/1/1
f 84/1/1 79/1/1 83/1/1
f 87/1/1 81/1/1 80/1/1
f 88/1/1 81/1/1 87/1/1
f 89/1/1 83/1/1 82/1/1
f 90/1/1 83/1/1 89/1/1
f 91/1/1 86/1/1 85/1/1
f 92/1/1 86/1/1 91/1/1
f 98/5/1 94/5/1 93/5/1
f 99/5/1 94/5/1 98/5/1
f 100/5/1 94/5/1 99/5/1
f 101/5/1 96/5/1 95/5/1
f 102/5/1 96/5/1 101/5/1
f 103/5/1 96/5/1 102/5/1
f 105/4/1 98/4/1 97/4/1
f 106/5/1 99/5/1 98/5/1
f 106/4/1 98/4/1 105/4/1
f 107/5/1 99/5/1 106/5/1
f 108/5/1 94/5/1 100/5/1
f 109/5/1 94/5/1 108/5/1
f 110/5/1 101/5/1 95/5/1
f 111/5/1 101/5/1 110/5/1
f 112/5/1 103/5/1 102/5/1
f 113/4/1 104/4/1 103/4/1
f 113/5/1 103/5/1 112/5/1
f 114/4/1 104/4/1 113/4/1
f 115/1/1 106/1/1 105/1/1
f 116/5/1 107/5/1 106/5/1
f 116/1/1 106/1/1 115/1/1
f 116/5/1 108/5/1 107/5/1
f 117/1/1 109/1/1 108/1/1
f 117/5/1 108/5/1 116/5/1
f 117/1/1 110/1/1 109/1/1
f 118/5/1 111/5/1 110/5/1
f 118/1/1 110/1/1 117/1/1
f 119/5/1 111/5/1 118/5/1
f 120/5/2 121/5/2 125/5/2
f 125/5/2 121/5/2 126/5/2
f 126/5/2 121/5/2 127/5/2
f 122/5/2 123/5/2 128/5/2
f 128/5/2 123/5/2 129/5/2
f 129/5/2 123/5/2 130/5/2
f 124/4/2 125/4/2 132/4/2
f 125/5/2 126/5/2 133/5/2
f 132/4/2 125/4/2 133/4/2
f 133/5/2 126/5/2 134/5/2
f 127/5/2 121/5/2 135/5/2
f 135/5/2 121/5/2 136/5/2
f 122/5/2 128/5/2 137/5/2
f 137/5/2 128/5/2 138/5/2
f 129/5/2 130/5/2 139/5/2
f 130/4/2 131/4/2 140/4/2
f 139/5/2 130/5/2 140/5/2
f 140/4/2 131/4/2 141/4/2
f 132/1/2 133/1/2 142/1/2
f 133/5/2 134/5/2 143/5/2
f 142/1/2 133/1/2 143/1/2
f 134/5/2 135/5/2 143/5/2
f 135/1/2 136/1/2 144/1/2
f 143/5/2 135/5/2 144/5/2
f 136/1/2 137/1/2 144/1/2
f 138/5/2 139/5/2 145/5/2
f 144/1/2 137/1/2 145/1/2
f 137/5/2 138/5/2 145/5/2
f 139/5/2 140/5/2 145/5/2
f 145/5/2 140/5/2 146/5/2
f 147/4/2 148/4/2 151/4/2
f 151/4/2 148/4/2 152/4/2
f 149/4/2 150/4/2 153/4/2
f 153/4/2 150/4/2 154/4/2
f 155/1/2 156/1/2 158/1/2
f 158/1/2 156/1/2 159/1/2
f 159/1/2 156/1/2 160/1/2
f 160/1/2 156/1/2 161/1/2
f 157/1/2 158/1/2 164/1/2
f 164/1/2 158/1/2 165/1/2
f 159/1/2 160/1/2 166/1/2
f 166/1/2 160/1/2 167/1/2
f 162/1/2 163/1/2 168/1/2
f 168/1/2 163/1/2 169/1/2
f 170/5/2 171/5/2 172/5/2
f 172/5/2 171/5/2 173/5/2
f 174/1/2 175/1/2 178/1/2
f 178/1/2 175/1/2 179/1/2
f 176/1/2 177/1/2 186/1/2
f 186/1/2 177/1/2 187/1/2
f 180/1/2 181/1/2 188/1/2
f 182/1/2 183/1/2 189/1/2
f 189/1/2 183/1/2 190/1/2
f 184/1/2 185/1/2 191/1/2
f 189/1/2 190/1/2 192/1/2
f 190/1/2 191/1/2 192/1/2
f 180/1/2 188/1/2 192/1/2
f 188/1/2 189/1/2 192/1/2
f 191/1/2 185/1/2 193/1/2
f 192/1/2 191/1/2 193/1/2
f 194/5/2 195/5/2 199/5/2
f 199/5/2 195/5/2 200/5/2
f 200/5/2 195/5/2 201/5/2
f 196/5/2 197/5/2 202/5/2
f 202/5/2 197/5/2 203/5/2
f 203/5/2 197/5/2 204/5/2
f 198/4/2 199/4/2 206/4/2
f 199/5/2 200/5/2 207/5/2
f 206/4/2 199/4/2 207/4/2
f 200/4/2 201/4/2 208/4/2
f 207/5/2 200/5/2 208/5/2
f 201/5/2 195/5/2 209/5/2
f 208/4/2 201/4/2 209/4/2
f 209/5/2 195/5/2 210/5/2
f 196/5/2 202/5/2 211/5/2
f 202/4/2 203/4/2 212/4/2
f 211/5/2 202/5/2 212/5/2
f 203/5/2 204/5/2 213/5/2
f 212/4/2 203/4/2 213/4/2
f 204/4/2 205/4/2 214/4/2
f 213/5/2 204/5/2 214/5/2
f 214/4/2 205/4/2 215/4/2
f 207/5/2 208/5/2 216/5/2
f 206/1/2 207/1/2 216/1/2
f 208/5/2 209/5/2 216/5/2
f 209/1/2 210/1/2 217/1/2
f 216/5/2 209/5/2 217/5/2
f 210/1/2 211/1/2 217/1/2
f 212/5/2 213/5/2 218/5/2
f 217/1/2 211/1/2 218/1/2
f 211/5/2 212/5/2 218/5/2
f 213/5/2 214/5/2 218/5/2
f 214/1/2 215/1/2 219/1/2
f 218/5/2 214/5/2 219/5/2
f 216/1/2 217/1/2 220/1/2
f 217/1/2 218/1/2 220/1/2
f 218/1/2 219/1/2 220/1/2
f 206/1/2 216/1/2 220/1/2
f 220/1/2 219/1/2 221/1/2
f 221/1/2 219/1/2 222/1/2
f 222/1/2 219/1/2 223/1/2
f 219/1/2 215/1/2 224/1/2
f 223/1/2 219/1/2 224/1/2
f 224/1/2 215/1/2 225/1/2
f 221/1/2 222/1/2 226/1/2
f 226/1/2 222/1/2 227/1/2
f 223/1/2 224/1/2 228/1/2
f 228/1/2 224/1/2 229/1/2
f 230/1/2 231/1/2 232/1/2
f 232/1/2 231/1/2 233/1/2
f 237/1/3 236/1/3 235/1/3
f 238/1/3 236/1/3 237/1/3
f 240/4/3 235/4/3 234/4/3
f 241/1/3 237/1/3 235/1/3
f 241/4/3 235/4/3 240/4/3
f 242/3/3 238/3/3 237/3/3
f 242/1/3 237/1/3 241/1/3
f 243/1/3 239/1/3 238/1/3
f 243/3/3 238/3/3 242/3/3
f 244/1/3 239/1/3 243/1/3
f 246/2/3 242/2/3 241/2/3
f 246/2/3 244/2/3 243/2/3
f 246/2/3 243/2/3 242/2/3
f 247/2/3 244/2/3 246/2/3
f 248/2/3 244/2/3 247/2/3
f 249/2/3 244/2/3 248/2/3
f 250/1/3 247/1/3 246/1/3
f 250/3/3 248/3/3 247/3/3
f 251/1/3 249/1/3 248/1/3
f 251/3/3 248/3/3 250/3/3
f 252/1/3 249/1/3 251/1/3
f 253/4/3 246/4/3 245/4/3
f 254/1/3 250/1/3 246/1/3
f 254/4/3 246/4/3 253/4/3
f 254/1/3 251/1/3 250/1/3
f 255/1/3 251/1/3 254/1/3
f 258/1/3 257/1/3 256/1/3
f 259/1/3 257/1/3 258/1/3
f 262/1/3 261/1/3 260/1/3
f 263/1/3 261/1/3 262/1/3
f 266/5/3 265/5/3 264/5/3
f 267/5/3 265/5/3 266/5/3
f 270/1/3 269/1/3 268/1/3
f 271/1/3 269/1/3 270/1/3
f 273/1/3 269/1/3 271/1/3
f 276/1/3 273/1/3 272/1/3
f 277/1/3 269/1/3 273/1/3
f 277/1/3 273/1/3 276/1/3
f 278/5/3 275/5/3 274/5/3
f 279/5/3 275/5/3 278/5/3
f 282/5/3 281/5/3 280/5/3
f 283/5/3 281/5/3 282/5/3
f 286/1/3 285/1/3 284/1/3
f 287/1/3 285/1/3 286/1/3
f 290/1/3 289/1/3 288/1/3
f 291/1/3 289/1/3 290/1/3
f 294/1/3 293/1/3 292/1/3
f 295/1/3 293/1/3 294/1/3
f 298/1/3 297/1/3 296/1/3
f 299/1/3 297/1/3 298/1/3
f 302/2/3 301/2/3 300/2/3
f 303/2/3 301/2/3 302/2/3
f 306/5/3 305/5/3 304/5/3
f 307/5/3 305/5/3 306/5/3
f 310/1/3 309/1/3 308/1/3
f 311/1/3 309/1/3 310/1/3
f 316/1/3 313/1/3 312/1/3
f 317/1/3 313/1/3 316/1/3
f 318/5/3 315/5/3 314/5/3
f 319/5/3 315/5/3 318/5/3
f 322/5/3 321/5/3 320/5/3
f 324/5/3 322/5/3 320/5/3
f 325/2/3 323/2/3 322/2/3
f 325/5/3 322/5/3 324/5/3
f 327/2/3 323/2/3 325/2/3
f 328/2/3 323/2/3 327/2/3
f 328/5/3 327/5/3 326/5/3
f 329/2/3 323/2/3 328/2/3
f 330/5/3 328/5/3 326/5/3
f 331/1/3 329/1/3 328/1/3
f 331/5/3 328/5/3 330/5/3
f 332/1/3 329/1/3 331/1/3
f 335/1/3 334/1/3 333/1/3
f 336/1/3 334/1/3 335/1/3
f 339/4/3 338/4/3 337/4/3
f 340/4/3 338/4/3 339/4/3
f 343/4/3 342/4/3 341/4/3
f 344/4/3 342/4/3 343/4/3
f 345/4/4 346/4/4 348/4/4
f 346/1/4 347/1/4 349/1/4
f 348/4/4 346/4/4 349/4/4
f 349/1/4 347/1/4 350/1/4
f 349/2/4 350/2/4 352/2/4
f 352/2/4 350/2/4 353/2/4
f 351/4/4 352/4/4 354/4/4
f 352/1/4 353/1/4 355/1/4
f 354/4/4 352/4/4 355/4/4
f 355/1/4 353/1/4 356/1/4
f 357/1/4 358/1/4 360/1/4
f 360/1/4 358/1/4 361/1/4
f 359/2/4 360/2/4 362/2/4
f 362/2/4 360/2/4 363/2/4
f 363/1/4 364/1/4 365/1/4
f 365/1/4 364/1/4 366/1/4
f 367/5/4 368/5/4 369/5/4
f 369/5/4 368/5/4 370/5/4
f 371/5/4 372/5/4 373/5/4
f 373/5/4 372/5/4 374/5/4
f 375/5/4 376/5/4 377/5/4
f 377/5/4 376/5/4 378/5/4
f 379/1/4 380/1/4 381/1/4
f 381/1/4 380/1/4 382/1/4
f 383/1/4 384/1/4 387/1/4
f 387/1/4 384/1/4 388/1/4
f 385/5/4 386/5/4 389/5/4
f 389/5/4 386/5/4 390/5/4
f 391/1/4 392/1/4 393/1/4
f 393/1/4 392/1/4 394/1/4
f 395/1/4 396/1/4 397/1/4
f 397/1/4 396/1/4 398/1/4
f 399/1/4 400/1/4 401/1/4
f 401/1/4 400/1/4 402/1/4
f 402/1/4 400/1/4 404/1/4
f 403/1/4 404/1/4 405/1/4
f 404/1/4 400/1/4 406/1/4
f 405/1/4 404/1/4 406/1/4
f 407/5/4 408/5/4 409/5/4
f 407/5/4 409/5/4 410/5/4
f 407/5/4 410/5/4 411/5/4
f 411/5/4 410/5/4 412/5/4
f 413/5/4 414/5/4 415/5/4
f 415/5/4 414/5/4 416/5/4
f 417/5/4 418/5/4 419/5/4
f 419/5/4 418/5/4 420/5/4
f 421/1/4 422/1/4 423/1/4
f 423/1/4 422/1/4 424/1/4
f 425/1/4 426/1/4 427/1/4
f 427/1/4 426/1/4 428/1/4
f 430/1/4 431/1/4 432/1/4
f 432/1/4 431/1/4 433/1/4
f 429/4/4 430/4/4 435/4/4
f 430/1/4 432/1/4 436/1/4
f 435/4/4 430/4/4 436/4/4
f 432/3/4 433/3/4 437/3/4
f 436/1/4 432/1/4 437/1/4
f 433/1/4 434/1/4 438/1/4
f 437/3/4 433/3/4 438/3/4
f 438/1/4 434/1/4 439/1/4
f 436/2/4 437/2/4 441/2/4
f 438/2/4 439/2/4 441/2/4
f 437/2/4 438/2/4 441/2/4
f 441/2/4 439/2/4 442/2/4
f 442/2/4 439/2/4 443/2/4
f 443/2/4 439/2/4 444/2/4
f 441/1/4 442/1/4 445/1/4
f 442/3/4 443/3/4 445/3/4
f 443/1/4 444/1/4 446/1/4
f 445/3/4 443/3/4 446/3/4
f 446/1/4 444/1/4 447/1/4
f 440/4/4 441/4/4 448/4/4
f 441/1/4 445/1/4 449/1/4
f 448/4/4 441/4/4 449/4/4
f 445/1/4 446/1/4 449/1/4
f 449/1/4 446/1/4 450/1/4
f 455/5/5 452/5/5 451/5/5
f 456/5/5 452/5/5 455/5/5
f 457/5/5 454/5/5 453/5/5
f 458/5/5 454/5/5 457/5/5
f 463/5/5 460/5/5 459/5/5
f 464/5/5 460/5/5 463/5/5
f 465/5/5 462/5/5 461/5/5
f 466/5/5 462/5/5 465/5/5
f 471/4/5 468/4/5 467/4/5
f 472/4/5 468/4/5 471/4/5
f 473/4/5 470/4/5 469/4/5
f 474/4/5 470/4/5 473/4/5
f 475/4/5 471/4/5 467/4/5
f 476/4/5 471/4/5 475/4/5
f 477/4/5 470/4/5 474/4/5
f 478/4/5 470/4/5 477/4/5
f 481/5/5 480/5/5 479/5/5
f 482/5/5 480/5/5 481/5/5
f 483/5/5 480/5/5 482/5/5
f 484/5/5 480/5/5 483/5/5
f 486/5/5 483/5/5 482/5/5
f 487/5/5 483/5/5 486/5/5
f 489/5/5 486/5/5 485/5/5
f 489/5/5 488/5/5 487/5/5
f 489/5/5 487/5/5 486/5/5
f 490/5/5 488/5/5 489/5/5
f 495/4/5 492/4/5 491/4/5
f 498/4/5 494/4/5 493/4/5
f 499/4/5 496/4/5 495/4/5
f 499/4/5 495/4/5 491/4/5
f 500/4/5 496/4/5 499/4/5
f 501/4/5 498/4/5 497/4/5
f 502/4/5 494/4/5 498/4/5
f 502/4/5 498/4/5 501/4/5
f 505/2/5 504/2/5 503/2/5
f 506/2/5 504/2/5 505/2/5
f 511/1/5 508/1/5 507/1/5
f 512/1/5 508/1/5 511/1/5
f 513/1/5 510/1/5 509/1/5
f 514/1/5 510/1/5 513/1/5
f 519/2/5 516/2/5 515/2/5
f 520/1/5 517/1/5 516/1/5
f 521/1/5 519/1/5 518/1/5
f 522/2/5 516/2/5 519/2/5
f 522/1/5 519/1/5 521/1/5
f 523/1/5 520/1/5 516/1/5
f 523/2/5 516/2/5 522/2/5
f 524/1/5 520/1/5 523/1/5
f 525/2/5 523/2/5 522/2/5
f 526/2/5 523/2/5 525/2/5
f 531/1/5 528/1/5 527/1/5
f 532/1/5 530/1/5 529/1/5
f 533/1/5 528/1/5 531/1/5
f 534/1/5 532/1/5 529/1/5
f 535/1/5 528/1/5 533/1/5
f 536/1/5 534/1/5 529/1/5
f 537/2/5 529/2/5 528/2/5
f 537/1/5 528/1/5 535/1/5
f 538/1/5 536/1/5 529/1/5
f 538/2/5 529/2/5 537/2/5
f 539/1/5 536/1/5 538/1/5
f 540/1/5 537/1/5 535/1/5
f 541/1/5 537/1/5 540/1/5
f 546/1/5 543/1/5 542/1/5
f 547/1/5 543/1/5 546/1/5
f 548/1/5 545/1/5 544/1/5
f 549/1/5 545/1/5 548/1/5
f 553/1/5 551/1/5 550/1/5
f 554/1/5 551/1/5 553/1/5
f 556/1/5 553/1/5 552/1/5
f 556/1/5 555/1/5 554/1/5
f 556/1/5 554/1/5 553/1/5
f 557/1/5 555/1/5 556/1/5
f 558/1/5 555/1/5 557/1/5
f 559/1/5 555/1/5 558/1/5
f 561/1/5 558/1/5 557/1/5
f 562/1/5 558/1/5 561/1/5
f 564/1/5 561/1/5 560/1/5
f 564/1/5 563/1/5 562/1/5
f 564/1/5 562/1/5 561/1/5
f 565/1/5 563/1/5 564/1/5
f 566/1/5 563/1/5 565/1/5
f 567/1/5 563/1/5 566/1/5
f 568/1/5 566/1/5 565/1/5
f 569/1/5 566/1/5 568/1/5
f 570/5/6 571/5/6 572/5/6
f 572/5/6 571/5/6 573/5/6
f 573/5/6 571/5/6 574/5/6
f 574/5/6 571/5/6 575/5/6
f 573/5/6 574/5/6 578/5/6
f 578/5/6 574/5/6 579/5/6
f 576/5/6 577/5/6 580/5/6
f 580/5/6 577/5/6 581/5/6
f 582/1/6 583/1/6 586/1/6
f 586/1/6 583/1/6 587/1/6
f 584/1/6 585/1/6 588/1/6
f 588/1/6 585/1/6 589/1/6
f 590/2/6 591/2/6 592/2/6
f 592/2/6 591/2/6 593/2/6
f 594/1/6 595/1/6 598/1/6
f 598/1/6 595/1/6 599/1/6
f 596/1/6 597/1/6 600/1/6
f 600/1/6 597/1/6 601/1/6
f 602/1/6 603/1/6 607/1/6
f 604/1/6 605/1/6 608/1/6
f 606/1/6 607/1/6 610/1/6
f 607/1/6 603/1/6 610/1/6
f 603/2/6 604/2/6 611/2/6
f 610/1/6 603/1/6 611/1/6
f 608/1/6 609/1/6 612/1/6
f 611/2/6 604/2/6 612/2/6
f 604/1/6 608/1/6 612/1/6
f 612/1/6 609/1/6 613/1/6
f 606/1/6 610/1/6 614/1/6
f 611/2/6 612/2/6 615/2/6
f 615/2/6 612/2/6 616/2/6
f 613/1/6 609/1/6 617/1/6
f 606/1/6 614/1/6 618/1/6
f 614/1/6 615/1/6 618/1/6
f 618/1/6 615/1/6 619/1/6
f 616/1/6 617/1/6 620/1/6
f 617/1/6 609/1/6 621/1/6
f 620/1/6 617/1/6 621/1/6
f 606/1/6 618/1/6 623/1/6
f 623/1/6 618/1/6 624/1/6
f 621/1/6 609/1/6 627/1/6
f 627/1/6 609/1/6 628/1/6
f 624/1/6 625/1/6 630/1/6
f 622/1/6 623/1/6 630/1/6
f 623/1/6 624/1/6 630/1/6
f 628/1/6 629/1/6 631/1/6
f 627/1/6 628/1/6 631/1/6
f 626/1/6 627/1/6 631/1/6
f 622/1/6 630/1/6 632/1/6
f 632/1/6 630/1/6 633/1/6
f 633/1/6 630/1/6 634/1/6
f 630/2/6 631/2/6 635/2/6
f 634/1/6 630/1/6 635/1/6
f 631/1/6 629/1/6 636/1/6
f 635/2/6 631/2/6 636/2/6
f 636/1/6 629/1/6 637/1/6
f 637/1/6 629/1/6 638/1/6
f 638/1/6 629/1/6 639/1/6
f 633/1/6 634/1/6 640/1/6
f 635/2/6 636/2/6 641/2/6
f 641/2/6 636/2/6 642/2/6
f 637/1/6 638/1/6 643/1/6
f 633/1/6 640/1/6 644/1/6
f 640/1/6 641/1/6 644/1/6
f 644/1/6 641/1/6 645/1/6
f 642/1/6 643/1/6 646/1/6
f 643/1/6 638/1/6 646/1/6
f 646/1/6 638/1/6 647/1/6
f 645/1/6 641/1/6 648/1/6
f 641/2/6 642/2/6 649/2/6
f 648/1/6 641/1/6 649/1/6
f 642/1/6 646/1/6 650/1/6
f 649/2/6 642/2/6 650/2/6
f 650/1/6 646/1/6 651/1/6
f 652/1/6 653/1/6 654/1/6
f 654/1/6 653/1/6 655/1/6
